solid
 facet normal 3419.667968 2387.9882816 25600
  outer loop
   vertex 712540 4721355 1051.63696289
   vertex 712700 4721355 1030.26403809
   vertex 712540 4721515 1036.71203613
  endloop
 endfacet
 facet normal 698.3984384 5529.0124504 25600
  outer loop
   vertex 712705 4721195 1064.68395996
   vertex 712860 4721355 1025.89904785
   vertex 712700 4721355 1030.26403809
  endloop
 endfacet
 facet normal -7778.8671872 1471.4611812 25600
  outer loop
   vertex 712865 4721195 1036.61499023
   vertex 713020 4721355 1074.51696777
   vertex 712860 4721355 1025.89904785
  endloop
 endfacet
 facet normal 2865.5957024 -8840.3622431 25600
  outer loop
   vertex 712865 4721195 1036.61499023
   vertex 713025 4721195 1018.70501709
   vertex 713020 4721355 1074.51696777
  endloop
 endfacet
endsolid