solid
 facet normal -1995.9960944 -2197.7539072 25600
  outer loop
   vertex 702460 4739915 1483.02502441
   vertex 702620 4739915 1495.5
   vertex 702460 4740075 1496.76098633
  endloop
 endfacet
 facet normal -1809.765624 -605.1171872 25600
  outer loop
   vertex 714620 4739115 1514.84399414
   vertex 714620 4739275 1518.62597656
   vertex 714460 4739275 1507.31494141
  endloop
 endfacet
 facet normal -1809.765624 -2310.722656 25600
  outer loop
   vertex 714460 4739275 1507.31494141
   vertex 714620 4739275 1518.62597656
   vertex 714460 4739435 1521.75695801
  endloop
 endfacet
 facet normal -3924.4921872 -4425.4492192 25600
  outer loop
   vertex 714620 4739275 1518.62597656
   vertex 714620 4739435 1546.28503418
   vertex 714460 4739435 1521.75695801
  endloop
 endfacet
 facet normal 223.2031248 4613.4374992 25600
  outer loop
   vertex 714780 4738955 1542.28295898
   vertex 714780 4739115 1513.44897461
   vertex 714620 4739115 1514.84399414
  endloop
 endfacet
 facet normal 223.2031248 -605.1171872 25600
  outer loop
   vertex 714620 4739115 1514.84399414
   vertex 714780 4739115 1513.44897461
   vertex 714620 4739275 1518.62597656
  endloop
 endfacet
 facet normal 505.1171872 -323.2031248 25600
  outer loop
   vertex 714780 4739115 1513.44897461
   vertex 714780 4739275 1515.46899414
   vertex 714620 4739275 1518.62597656
  endloop
 endfacet
 facet normal 505.1171872 -4425.4492192 25600
  outer loop
   vertex 714620 4739275 1518.62597656
   vertex 714780 4739275 1515.46899414
   vertex 714620 4739435 1546.28503418
  endloop
 endfacet
 facet normal 4232.792968 4613.4374992 25600
  outer loop
   vertex 714780 4738955 1542.28295898
   vertex 714940 4738955 1515.82800293
   vertex 714780 4739115 1513.44897461
  endloop
 endfacet
 facet normal 2789.7656256 3170.4101568 25600
  outer loop
   vertex 714940 4738955 1515.82800293
   vertex 714940 4739115 1496.01293945
   vertex 714780 4739115 1513.44897461
  endloop
 endfacet
 facet normal 2789.7656256 -323.2031248 25600
  outer loop
   vertex 714780 4739115 1513.44897461
   vertex 714940 4739115 1496.01293945
   vertex 714780 4739275 1515.46899414
  endloop
 endfacet
 facet normal -384.472656 -3497.4414064 25600
  outer loop
   vertex 714940 4739115 1496.01293945
   vertex 714940 4739275 1517.87194824
   vertex 714780 4739275 1515.46899414
  endloop
 endfacet
 facet normal -334.3945312 3170.4101568 25600
  outer loop
   vertex 714940 4738955 1515.82800293
   vertex 715100 4738955 1517.91796875
   vertex 714940 4739115 1496.01293945
  endloop
 endfacet
 facet normal 422.070312 3926.875 25600
  outer loop
   vertex 715100 4738955 1517.91796875
   vertex 715100 4739115 1493.375
   vertex 714940 4739115 1496.01293945
  endloop
 endfacet
 facet normal 422.070312 -3497.4414064 25600
  outer loop
   vertex 714940 4739115 1496.01293945
   vertex 715100 4739115 1493.375
   vertex 714940 4739275 1517.87194824
  endloop
 endfacet
 facet normal -2569.9218752 -6489.4335936 25600
  outer loop
   vertex 715100 4739115 1493.375
   vertex 715100 4739275 1533.93395996
   vertex 714940 4739275 1517.87194824
  endloop
 endfacet
 facet normal 302.7148432 -6489.4335936 25600
  outer loop
   vertex 715100 4739115 1493.375
   vertex 715260 4739115 1491.48303223
   vertex 715100 4739275 1533.93395996
  endloop
 endfacet
 facet normal 3234.3945312 -3557.7539056 25600
  outer loop
   vertex 715260 4739115 1491.48303223
   vertex 715260 4739275 1513.71899414
   vertex 715100 4739275 1533.93395996
  endloop
 endfacet
 facet normal -3389.5898432 -3898.2421872 25600
  outer loop
   vertex 715420 4738955 1488.30395508
   vertex 715420 4739115 1512.66796875
   vertex 715260 4739115 1491.48303223
  endloop
 endfacet
 facet normal -3389.5898432 -3557.7539056 25600
  outer loop
   vertex 715260 4739115 1491.48303223
   vertex 715420 4739115 1512.66796875
   vertex 715260 4739275 1513.71899414
  endloop
 endfacet
 facet normal -1198.8867184 -3908.8085936 25600
  outer loop
   vertex 715580 4738955 1495.73095703
   vertex 715580 4739115 1520.16101074
   vertex 715420 4739115 1512.66796875
  endloop
 endfacet
 facet normal -806.875 -1403.027344 25600
  outer loop
   vertex 715740 4738955 1516.43505859
   vertex 715740 4739115 1525.20397949
   vertex 715580 4739115 1520.16101074
  endloop
 endfacet
 facet normal -1557.7539072 -1403.027344 25600
  outer loop
   vertex 715740 4738955 1516.43505859
   vertex 715900 4738955 1526.17102051
   vertex 715740 4739115 1525.20397949
  endloop
 endfacet
endsolid