solid
 facet normal -6.21093760004 1308.984376 25600
  outer loop
   vertex 707900 4732875 2108.83105469
   vertex 707900 4733035 2100.64990234
   vertex 707740 4733035 2100.61108398
  endloop
 endfacet
 facet normal -6.21093760004 -429.7656256 25600
  outer loop
   vertex 707740 4733035 2100.61108398
   vertex 707900 4733035 2100.64990234
   vertex 707740 4733195 2103.29711914
  endloop
 endfacet
 facet normal -5367.8125008 -5791.3671888 25600
  outer loop
   vertex 707900 4733035 2100.64990234
   vertex 707900 4733195 2136.84594727
   vertex 707740 4733195 2103.29711914
  endloop
 endfacet
 facet normal 1304.3359376 1308.984376 25600
  outer loop
   vertex 707900 4732875 2108.83105469
   vertex 708060 4732875 2100.67895508
   vertex 707900 4733035 2100.64990234
  endloop
 endfacet
 facet normal -4.804688 -0.156249600041 25600
  outer loop
   vertex 708060 4732875 2100.67895508
   vertex 708060 4733035 2100.67993164
   vertex 707900 4733035 2100.64990234
  endloop
 endfacet
 facet normal -4.804688 -5791.3671888 25600
  outer loop
   vertex 707900 4733035 2100.64990234
   vertex 708060 4733035 2100.67993164
   vertex 707900 4733195 2136.84594727
  endloop
 endfacet
 facet normal 7661.2890624 7659.6874992 25600
  outer loop
   vertex 708060 4732715 2148.55200195
   vertex 708220 4732715 2100.66894531
   vertex 708060 4732875 2100.67895508
  endloop
 endfacet
 facet normal 1.60156320002 0.0 25600
  outer loop
   vertex 708220 4732715 2100.66894531
   vertex 708220 4732875 2100.66894531
   vertex 708060 4732875 2100.67895508
  endloop
 endfacet
 facet normal 1.60156320002 -0.156249600041 25600
  outer loop
   vertex 708060 4732875 2100.67895508
   vertex 708220 4732875 2100.66894531
   vertex 708060 4733035 2100.67993164
  endloop
 endfacet
 facet normal -849.7656256 -851.5234384 25600
  outer loop
   vertex 708220 4732875 2100.66894531
   vertex 708220 4733035 2105.9909668
   vertex 708060 4733035 2100.67993164
  endloop
 endfacet
 facet normal -1404.6484384 0.0 25600
  outer loop
   vertex 708220 4732715 2100.66894531
   vertex 708380 4732715 2109.44799805
   vertex 708220 4732875 2100.66894531
  endloop
 endfacet
 facet normal -3.35937600001 1401.2890624 25600
  outer loop
   vertex 708380 4732715 2109.44799805
   vertex 708380 4732875 2100.68994141
   vertex 708220 4732875 2100.66894531
  endloop
 endfacet
 facet normal -3.35937600001 -851.5234384 25600
  outer loop
   vertex 708220 4732875 2100.66894531
   vertex 708380 4732875 2100.68994141
   vertex 708220 4733035 2105.9909668
  endloop
 endfacet
 facet normal 848.0078128 -0.156249600041 25600
  outer loop
   vertex 708380 4732875 2100.68994141
   vertex 708380 4733035 2100.69091797
   vertex 708220 4733035 2105.9909668
  endloop
 endfacet
 facet normal -5596.1718752 1401.2890624 25600
  outer loop
   vertex 708380 4732715 2109.44799805
   vertex 708540 4732715 2144.42407227
   vertex 708380 4732875 2100.68994141
  endloop
 endfacet
 facet normal -4296.1718736 2701.289064 25600
  outer loop
   vertex 708540 4732715 2144.42407227
   vertex 708540 4732875 2127.54101562
   vertex 708380 4732875 2100.68994141
  endloop
 endfacet
 facet normal -4296.1718736 -0.156249600041 25600
  outer loop
   vertex 708380 4732875 2100.68994141
   vertex 708540 4732875 2127.54101562
   vertex 708380 4733035 2100.69091797
  endloop
 endfacet
 facet normal -2.89062559998 4293.1249984 25600
  outer loop
   vertex 708540 4732875 2127.54101562
   vertex 708540 4733035 2100.70898438
   vertex 708380 4733035 2100.69091797
  endloop
 endfacet
 facet normal -2.89062559998 -6029.2968752 25600
  outer loop
   vertex 708380 4733035 2100.69091797
   vertex 708540 4733035 2100.70898438
   vertex 708380 4733195 2138.37402344
  endloop
 endfacet
 facet normal 5291.679688 -734.7265616 25600
  outer loop
   vertex 708540 4733035 2100.70898438
   vertex 708540 4733195 2105.30102539
   vertex 708380 4733195 2138.37402344
  endloop
 endfacet
 facet normal -5754.7265616 -734.7265616 25600
  outer loop
   vertex 708540 4733035 2100.70898438
   vertex 708700 4733035 2136.67602539
   vertex 708540 4733195 2105.30102539
  endloop
 endfacet
 facet normal -705.76172 -6181.9140624 25600
  outer loop
   vertex 715420 4735275 1617.02099609
   vertex 715580 4735275 1621.43200684
   vertex 715420 4735435 1655.65795898
  endloop
 endfacet
 facet normal -1457.1093744 14.5703136 25600
  outer loop
   vertex 715580 4735275 1621.43200684
   vertex 715740 4735275 1630.53894043
   vertex 715580 4735435 1621.34094238
  endloop
 endfacet
 facet normal 426.875 1898.554688 25600
  outer loop
   vertex 715740 4735275 1630.53894043
   vertex 715740 4735435 1618.67297363
   vertex 715580 4735435 1621.34094238
  endloop
 endfacet
 facet normal 1853.4375008 1898.554688 25600
  outer loop
   vertex 715740 4735275 1630.53894043
   vertex 715900 4735275 1618.95495605
   vertex 715740 4735435 1618.67297363
  endloop
 endfacet
 facet normal 1659.3554688 1704.472656 25600
  outer loop
   vertex 715900 4735275 1618.95495605
   vertex 715900 4735435 1608.30200195
   vertex 715740 4735435 1618.67297363
  endloop
 endfacet
 facet normal -934.414064 1704.472656 25600
  outer loop
   vertex 715900 4735275 1618.95495605
   vertex 716060 4735275 1624.79504395
   vertex 715900 4735435 1608.30200195
  endloop
 endfacet
 facet normal 692.9687488 3331.8554688 25600
  outer loop
   vertex 716060 4735275 1624.79504395
   vertex 716060 4735435 1603.97094727
   vertex 715900 4735435 1608.30200195
  endloop
 endfacet
 facet normal 692.9687488 -2938.88672 25600
  outer loop
   vertex 715900 4735435 1608.30200195
   vertex 716060 4735435 1603.97094727
   vertex 715900 4735595 1626.67004395
  endloop
 endfacet
 facet normal 2240.6445328 -1391.210936 25600
  outer loop
   vertex 716060 4735435 1603.97094727
   vertex 716060 4735595 1612.66601562
   vertex 715900 4735595 1626.67004395
  endloop
 endfacet
 facet normal -621.445312 6827.3632816 25600
  outer loop
   vertex 716220 4735275 1650.52600098
   vertex 716220 4735435 1607.85498047
   vertex 716060 4735435 1603.97094727
  endloop
 endfacet
 facet normal -621.445312 -1391.210936 25600
  outer loop
   vertex 716060 4735435 1603.97094727
   vertex 716220 4735435 1607.85498047
   vertex 716060 4735595 1612.66601562
  endloop
 endfacet
 facet normal 1724.3164048 954.5507808 25600
  outer loop
   vertex 716220 4735435 1607.85498047
   vertex 716220 4735595 1601.88903809
   vertex 716060 4735595 1612.66601562
  endloop
 endfacet
 facet normal 1724.3164048 -5153.2812512 25600
  outer loop
   vertex 716060 4735595 1612.66601562
   vertex 716220 4735595 1601.88903809
   vertex 716060 4735755 1644.87402344
  endloop
 endfacet
 facet normal 5643.5156256 -1234.0820304 25600
  outer loop
   vertex 716220 4735595 1601.88903809
   vertex 716220 4735755 1609.60205078
   vertex 716060 4735755 1644.87402344
  endloop
 endfacet
 facet normal 5643.5156256 -5885.2734368 25600
  outer loop
   vertex 716060 4735755 1644.87402344
   vertex 716220 4735755 1609.60205078
   vertex 716060 4735915 1681.65698242
  endloop
 endfacet
 facet normal -3582.402344 954.5507808 25600
  outer loop
   vertex 716220 4735435 1607.85498047
   vertex 716380 4735435 1630.24499512
   vertex 716220 4735595 1601.88903809
  endloop
 endfacet
 facet normal -407.6757808 4129.277344 25600
  outer loop
   vertex 716380 4735435 1630.24499512
   vertex 716380 4735595 1604.43701172
   vertex 716220 4735595 1601.88903809
  endloop
 endfacet
 facet normal -407.6757808 -1234.0820304 25600
  outer loop
   vertex 716220 4735595 1601.88903809
   vertex 716380 4735595 1604.43701172
   vertex 716220 4735755 1609.60205078
  endloop
 endfacet
 facet normal 1247.0507808 420.6445312 25600
  outer loop
   vertex 716380 4735595 1604.43701172
   vertex 716380 4735755 1601.8079834
   vertex 716220 4735755 1609.60205078
  endloop
 endfacet
 facet normal 1247.0507808 -6635.6640624 25600
  outer loop
   vertex 716220 4735755 1609.60205078
   vertex 716380 4735755 1601.8079834
   vertex 716220 4735915 1651.07495117
  endloop
 endfacet
 facet normal 3757.9101552 -4124.804688 25600
  outer loop
   vertex 716380 4735755 1601.8079834
   vertex 716380 4735915 1627.5880127
   vertex 716220 4735915 1651.07495117
  endloop
 endfacet
 facet normal -2294.3945312 4129.277344 25600
  outer loop
   vertex 716380 4735435 1630.24499512
   vertex 716540 4735435 1644.58496094
   vertex 716380 4735595 1604.43701172
  endloop
 endfacet
 facet normal -2799.042968 3624.6289072 25600
  outer loop
   vertex 716540 4735435 1644.58496094
   vertex 716540 4735595 1621.93103027
   vertex 716380 4735595 1604.43701172
  endloop
 endfacet
 facet normal -2799.042968 420.6445312 25600
  outer loop
   vertex 716380 4735595 1604.43701172
   vertex 716540 4735595 1621.93103027
   vertex 716380 4735755 1601.8079834
  endloop
 endfacet
 facet normal -1443.2031248 1776.4843744 25600
  outer loop
   vertex 716540 4735595 1621.93103027
   vertex 716540 4735755 1610.82800293
   vertex 716380 4735755 1601.8079834
  endloop
 endfacet
 facet normal -1443.2031248 -4124.804688 25600
  outer loop
   vertex 716380 4735755 1601.8079834
   vertex 716540 4735755 1610.82800293
   vertex 716380 4735915 1627.5880127
  endloop
 endfacet
 facet normal 2767.8515632 86.25 25600
  outer loop
   vertex 716540 4735755 1610.82800293
   vertex 716540 4735915 1610.28894043
   vertex 716380 4735915 1627.5880127
  endloop
 endfacet
 facet normal -4790.5664064 86.25 25600
  outer loop
   vertex 716540 4735755 1610.82800293
   vertex 716700 4735755 1640.76904297
   vertex 716540 4735915 1610.28894043
  endloop
 endfacet
 facet normal 1366.2304688 6243.0468752 25600
  outer loop
   vertex 716700 4735755 1640.76904297
   vertex 716700 4735915 1601.75
   vertex 716540 4735915 1610.28894043
  endloop
 endfacet
 facet normal 1366.2304688 -19957.1289056 25600
  outer loop
   vertex 716540 4735915 1610.28894043
   vertex 716700 4735915 1601.75
   vertex 716540 4736075 1735.02099609
  endloop
 endfacet
 facet normal 827.6757808 -628.320312 25600
  outer loop
   vertex 718300 4737995 1257.04199219
   vertex 718300 4738155 1260.96899414
   vertex 718140 4738155 1266.14196777
  endloop
 endfacet
 facet normal 3935.0390624 4015.195312 25600
  outer loop
   vertex 718300 4737835 1282.13696289
   vertex 718460 4737835 1257.54296875
   vertex 718300 4737995 1257.04199219
  endloop
 endfacet
 facet normal 422.7148448 502.8710944 25600
  outer loop
   vertex 718460 4737835 1257.54296875
   vertex 718460 4737995 1254.40002441
   vertex 718300 4737995 1257.04199219
  endloop
 endfacet
 facet normal 422.7148448 -628.320312 25600
  outer loop
   vertex 718300 4737995 1257.04199219
   vertex 718460 4737995 1254.40002441
   vertex 718300 4738155 1260.96899414
  endloop
 endfacet
 facet normal 1051.0351568 0.0 25600
  outer loop
   vertex 718460 4737995 1254.40002441
   vertex 718460 4738155 1254.40002441
   vertex 718300 4738155 1260.96899414
  endloop
 endfacet
 facet normal 1051.0351568 -222.402344 25600
  outer loop
   vertex 718300 4738155 1260.96899414
   vertex 718460 4738155 1254.40002441
   vertex 718300 4738315 1262.35900879
  endloop
 endfacet
 facet normal 1219.0429696 -54.3945312 25600
  outer loop
   vertex 718460 4738155 1254.40002441
   vertex 718460 4738315 1254.73999023
   vertex 718300 4738315 1262.35900879
  endloop
 endfacet
 facet normal 502.8710944 2171.8359376 25600
  outer loop
   vertex 718620 4737675 1267.97399902
   vertex 718620 4737835 1254.40002441
   vertex 718460 4737835 1257.54296875
  endloop
 endfacet
 facet normal 502.8710944 502.8710944 25600
  outer loop
   vertex 718460 4737835 1257.54296875
   vertex 718620 4737835 1254.40002441
   vertex 718460 4737995 1254.40002441
  endloop
 endfacet
 facet normal 0.0 0.0 25600
  outer loop
   vertex 718620 4737835 1254.40002441
   vertex 718620 4737995 1254.40002441
   vertex 718460 4737995 1254.40002441
  endloop
 endfacet
 facet normal 0.0 0.0 25600
  outer loop
   vertex 718460 4737995 1254.40002441
   vertex 718620 4737995 1254.40002441
   vertex 718460 4738155 1254.40002441
  endloop
 endfacet
 facet normal 0.0 0.0 25600
  outer loop
   vertex 718620 4737995 1254.40002441
   vertex 718620 4738155 1254.40002441
   vertex 718460 4738155 1254.40002441
  endloop
 endfacet
 facet normal 0.0 -54.3945312 25600
  outer loop
   vertex 718460 4738155 1254.40002441
   vertex 718620 4738155 1254.40002441
   vertex 718460 4738315 1254.73999023
  endloop
 endfacet
 facet normal -142.7148448 -197.109376 25600
  outer loop
   vertex 718620 4738155 1254.40002441
   vertex 718620 4738315 1255.63195801
   vertex 718460 4738315 1254.73999023
  endloop
 endfacet
 facet normal -142.7148448 -413.9257824 25600
  outer loop
   vertex 718460 4738315 1254.73999023
   vertex 718620 4738315 1255.63195801
   vertex 718460 4738475 1257.32702637
  endloop
 endfacet
 facet normal -896.640624 -1167.8515616 25600
  outer loop
   vertex 718620 4738315 1255.63195801
   vertex 718620 4738475 1262.93103027
   vertex 718460 4738475 1257.32702637
  endloop
 endfacet
 facet normal -896.640624 -6944.1601552 25600
  outer loop
   vertex 718460 4738475 1257.32702637
   vertex 718620 4738475 1262.93103027
   vertex 718460 4738635 1300.72802734
  endloop
 endfacet
 facet normal 1644.9609376 2171.8359376 25600
  outer loop
   vertex 718620 4737675 1267.97399902
   vertex 718780 4737675 1257.69299316
   vertex 718620 4737835 1254.40002441
  endloop
 endfacet
 facet normal -6.56250079999 520.3124992 25600
  outer loop
   vertex 718780 4737675 1257.69299316
   vertex 718780 4737835 1254.44104004
   vertex 718620 4737835 1254.40002441
  endloop
 endfacet
 facet normal -6.56250079999 0.0 25600
  outer loop
   vertex 718620 4737835 1254.40002441
   vertex 718780 4737835 1254.44104004
   vertex 718620 4737995 1254.40002441
  endloop
 endfacet
 facet normal 0.0 6.56250079999 25600
  outer loop
   vertex 718780 4737835 1254.44104004
   vertex 718780 4737995 1254.40002441
   vertex 718620 4737995 1254.40002441
  endloop
 endfacet
 facet normal 0.0 0.0 25600
  outer loop
   vertex 718620 4737995 1254.40002441
   vertex 718780 4737995 1254.40002441
   vertex 718620 4738155 1254.40002441
  endloop
 endfacet
 facet normal -7.03125119999 -7.03125119999 25600
  outer loop
   vertex 718780 4737995 1254.40002441
   vertex 718780 4738155 1254.44396973
   vertex 718620 4738155 1254.40002441
  endloop
 endfacet
 facet normal -7.03125119999 -197.109376 25600
  outer loop
   vertex 718620 4738155 1254.40002441
   vertex 718780 4738155 1254.44396973
   vertex 718620 4738315 1255.63195801
  endloop
 endfacet
 facet normal -296.1718752 -486.25 25600
  outer loop
   vertex 718780 4738155 1254.44396973
   vertex 718780 4738315 1257.48303223
   vertex 718620 4738315 1255.63195801
  endloop
 endfacet
 facet normal -296.1718752 -1167.8515616 25600
  outer loop
   vertex 718620 4738315 1255.63195801
   vertex 718780 4738315 1257.48303223
   vertex 718620 4738475 1262.93103027
  endloop
 endfacet
 facet normal -4674.8828128 -5546.5624992 25600
  outer loop
   vertex 718780 4738315 1257.48303223
   vertex 718780 4738475 1292.14904785
   vertex 718620 4738475 1262.93103027
  endloop
 endfacet
 facet normal -365.9179696 520.3124992 25600
  outer loop
   vertex 718780 4737675 1257.69299316
   vertex 718940 4737675 1259.97998047
   vertex 718780 4737835 1254.44104004
  endloop
 endfacet
 facet normal 6.56250079999 892.7929696 25600
  outer loop
   vertex 718940 4737675 1259.97998047
   vertex 718940 4737835 1254.40002441
   vertex 718780 4737835 1254.44104004
  endloop
 endfacet
 facet normal 6.56250079999 6.56250079999 25600
  outer loop
   vertex 718780 4737835 1254.44104004
   vertex 718940 4737835 1254.40002441
   vertex 718780 4737995 1254.40002441
  endloop
 endfacet
 facet normal -758.7109376 -758.7109376 25600
  outer loop
   vertex 718940 4737835 1254.40002441
   vertex 718940 4737995 1259.14196777
   vertex 718780 4737995 1254.40002441
  endloop
 endfacet
 facet normal -758.7109376 -7.03125119999 25600
  outer loop
   vertex 718780 4737995 1254.40002441
   vertex 718940 4737995 1259.14196777
   vertex 718780 4738155 1254.44396973
  endloop
 endfacet
 facet normal -3601.6015616 -486.25 25600
  outer loop
   vertex 718780 4738155 1254.44396973
   vertex 718940 4738155 1276.95397949
   vertex 718780 4738315 1257.48303223
  endloop
 endfacet
 facet normal -3535.8398432 -5546.5624992 25600
  outer loop
   vertex 718780 4738315 1257.48303223
   vertex 718940 4738315 1279.58203125
   vertex 718780 4738475 1292.14904785
  endloop
 endfacet
 facet normal 892.7929696 892.7929696 25600
  outer loop
   vertex 718940 4737675 1259.97998047
   vertex 719100 4737675 1254.40002441
   vertex 718940 4737835 1254.40002441
  endloop
 endfacet
 facet normal 0.0 0.0 25600
  outer loop
   vertex 719100 4737675 1254.40002441
   vertex 719100 4737835 1254.40002441
   vertex 718940 4737835 1254.40002441
  endloop
 endfacet
 facet normal 0.0 -758.7109376 25600
  outer loop
   vertex 718940 4737835 1254.40002441
   vertex 719100 4737835 1254.40002441
   vertex 718940 4737995 1259.14196777
  endloop
 endfacet
 facet normal -0.156251199987 -0.156251199987 25600
  outer loop
   vertex 719260 4737515 1254.40002441
   vertex 719260 4737675 1254.40100098
   vertex 719100 4737675 1254.40002441
  endloop
 endfacet
 facet normal -0.156251199987 0.0 25600
  outer loop
   vertex 719100 4737675 1254.40002441
   vertex 719260 4737675 1254.40100098
   vertex 719100 4737835 1254.40002441
  endloop
 endfacet
 facet normal -7819.8437504 -7819.6874992 25600
  outer loop
   vertex 719260 4737675 1254.40100098
   vertex 719260 4737835 1303.27404785
   vertex 719100 4737835 1254.40002441
  endloop
 endfacet
 facet normal 6622.0898432 -0.156251200024 25600
  outer loop
   vertex 719420 4737035 1254.42297363
   vertex 719420 4737195 1254.4239502
   vertex 719260 4737195 1295.81201172
  endloop
 endfacet
 facet normal 4977.597656 -0.175780799982 25600
  outer loop
   vertex 719420 4737195 1254.4239502
   vertex 719420 4737355 1254.42504883
   vertex 719260 4737355 1285.53503418
  endloop
 endfacet
 facet normal 4977.597656 4981.6015632 25600
  outer loop
   vertex 719260 4737355 1285.53503418
   vertex 719420 4737355 1254.42504883
   vertex 719260 4737515 1254.40002441
  endloop
 endfacet
 facet normal -4.00390719999 0.0 25600
  outer loop
   vertex 719420 4737355 1254.42504883
   vertex 719420 4737515 1254.42504883
   vertex 719260 4737515 1254.40002441
  endloop
 endfacet
 facet normal -4.00390719999 -0.156251199987 25600
  outer loop
   vertex 719260 4737515 1254.40002441
   vertex 719420 4737515 1254.42504883
   vertex 719260 4737675 1254.40100098
  endloop
 endfacet
 facet normal -3395.0390624 -3391.1914064 25600
  outer loop
   vertex 719420 4737515 1254.42504883
   vertex 719420 4737675 1275.61999512
   vertex 719260 4737675 1254.40100098
  endloop
 endfacet
 facet normal 6332.6367184 6336.3281248 25600
  outer loop
   vertex 719420 4736875 1294.02502441
   vertex 719580 4736875 1254.44604492
   vertex 719420 4737035 1254.42297363
  endloop
 endfacet
 facet normal -3.69140640003 0.0 25600
  outer loop
   vertex 719580 4736875 1254.44604492
   vertex 719580 4737035 1254.44604492
   vertex 719420 4737035 1254.42297363
  endloop
 endfacet
 facet normal -3.69140640003 -0.156251200024 25600
  outer loop
   vertex 719420 4737035 1254.42297363
   vertex 719580 4737035 1254.44604492
   vertex 719420 4737195 1254.4239502
  endloop
 endfacet
 facet normal -607.0507808 -603.5156256 25600
  outer loop
   vertex 719580 4737035 1254.44604492
   vertex 719580 4737195 1258.21801758
   vertex 719420 4737195 1254.4239502
  endloop
 endfacet
 facet normal -607.0507808 -0.175780799982 25600
  outer loop
   vertex 719420 4737195 1254.4239502
   vertex 719580 4737195 1258.21801758
   vertex 719420 4737355 1254.42504883
  endloop
 endfacet
 facet normal 4.00390719999 610.8789072 25600
  outer loop
   vertex 719580 4737195 1258.21801758
   vertex 719580 4737355 1254.40002441
   vertex 719420 4737355 1254.42504883
  endloop
 endfacet
 facet normal 4.00390719999 0.0 25600
  outer loop
   vertex 719420 4737355 1254.42504883
   vertex 719580 4737355 1254.40002441
   vertex 719420 4737515 1254.42504883
  endloop
 endfacet
 facet normal -2469.4335936 -2473.4375008 25600
  outer loop
   vertex 719580 4737355 1254.40002441
   vertex 719580 4737515 1269.85900879
   vertex 719420 4737515 1254.42504883
  endloop
 endfacet
 facet normal -2469.4335936 -3391.1914064 25600
  outer loop
   vertex 719420 4737515 1254.42504883
   vertex 719580 4737515 1269.85900879
   vertex 719420 4737675 1275.61999512
  endloop
 endfacet
 facet normal 2896.972656 489.9218752 25600
  outer loop
   vertex 719580 4729035 1083.23803711
   vertex 719740 4729035 1065.13195801
   vertex 719580 4729195 1080.17602539
  endloop
 endfacet
 facet normal 2406.875 -0.175780799982 25600
  outer loop
   vertex 719740 4729035 1065.13195801
   vertex 719740 4729195 1065.13305664
   vertex 719580 4729195 1080.17602539
  endloop
 endfacet
 facet normal 2406.875 531.0351568 25600
  outer loop
   vertex 719580 4729195 1080.17602539
   vertex 719740 4729195 1065.13305664
   vertex 719580 4729355 1076.85705566
  endloop
 endfacet
 facet normal 1875.6835936 -0.156249600004 25600
  outer loop
   vertex 719740 4729195 1065.13305664
   vertex 719740 4729355 1065.1340332
   vertex 719580 4729355 1076.85705566
  endloop
 endfacet
 facet normal 1875.6835936 -867.9882816 25600
  outer loop
   vertex 719580 4729355 1076.85705566
   vertex 719740 4729355 1065.1340332
   vertex 719580 4729515 1082.28198242
  endloop
 endfacet
 facet normal 2743.515624 -0.156251199987 25600
  outer loop
   vertex 719740 4729355 1065.1340332
   vertex 719740 4729515 1065.13500977
   vertex 719580 4729515 1082.28198242
  endloop
 endfacet
 facet normal 2743.515624 -897.1289072 25600
  outer loop
   vertex 719580 4729515 1082.28198242
   vertex 719740 4729515 1065.13500977
   vertex 719580 4729675 1087.88903809
  endloop
 endfacet
 facet normal 3610.4101568 -30.2343744 25600
  outer loop
   vertex 719740 4729515 1065.13500977
   vertex 719740 4729675 1065.32397461
   vertex 719580 4729675 1087.88903809
  endloop
 endfacet
 facet normal 3759.6875008 -0.156249600004 25600
  outer loop
   vertex 719740 4730635 1065.14001465
   vertex 719740 4730795 1065.14099121
   vertex 719580 4730795 1088.63903809
  endloop
 endfacet
 facet normal 3474.2382816 -0.156249600004 25600
  outer loop
   vertex 719740 4730795 1065.14099121
   vertex 719740 4730955 1065.14196777
   vertex 719580 4730955 1086.85595703
  endloop
 endfacet
 facet normal 1907.0507808 -0.156251199987 25600
  outer loop
   vertex 719740 4730955 1065.14196777
   vertex 719740 4731115 1065.14294434
   vertex 719580 4731115 1077.06201172
  endloop
 endfacet
 facet normal 1907.0507808 207.0507808 25600
  outer loop
   vertex 719580 4731115 1077.06201172
   vertex 719740 4731115 1065.14294434
   vertex 719580 4731275 1075.76794434
  endloop
 endfacet
 facet normal 1699.8242192 -0.175780800018 25600
  outer loop
   vertex 719740 4731115 1065.14294434
   vertex 719740 4731275 1065.14404297
   vertex 719580 4731275 1075.76794434
  endloop
 endfacet
 facet normal 1699.8242192 -1973.9257808 25600
  outer loop
   vertex 719580 4731275 1075.76794434
   vertex 719740 4731275 1065.14404297
   vertex 719580 4731435 1088.10498047
  endloop
 endfacet
 facet normal 3645.6054688 -2227.5195312 25600
  outer loop
   vertex 719740 4736555 1240.34997559
   vertex 719740 4736715 1254.27197266
   vertex 719580 4736715 1277.05700684
  endloop
 endfacet
 facet normal 3645.6054688 3617.7539072 25600
  outer loop
   vertex 719580 4736715 1277.05700684
   vertex 719740 4736715 1254.27197266
   vertex 719580 4736875 1254.44604492
  endloop
 endfacet
 facet normal 27.5195312 -0.332030399986 25600
  outer loop
   vertex 719740 4736715 1254.27197266
   vertex 719740 4736875 1254.27404785
   vertex 719580 4736875 1254.44604492
  endloop
 endfacet
 facet normal 27.5195312 0.0 25600
  outer loop
   vertex 719580 4736875 1254.44604492
   vertex 719740 4736875 1254.27404785
   vertex 719580 4737035 1254.44604492
  endloop
 endfacet
 facet normal 7.36328160001 -20.1562496 25600
  outer loop
   vertex 719740 4736875 1254.27404785
   vertex 719740 4737035 1254.40002441
   vertex 719580 4737035 1254.44604492
  endloop
 endfacet
 facet normal 7.36328160001 -603.5156256 25600
  outer loop
   vertex 719580 4737035 1254.44604492
   vertex 719740 4737035 1254.40002441
   vertex 719580 4737195 1258.21801758
  endloop
 endfacet
 facet normal 6.7187504 -73.9062496 25600
  outer loop
   vertex 719900 4728875 1064.62805176
   vertex 719900 4729035 1065.08996582
   vertex 719740 4729035 1065.13195801
  endloop
 endfacet
 facet normal 6.7187504 -0.175780799982 25600
  outer loop
   vertex 719740 4729035 1065.13195801
   vertex 719900 4729035 1065.08996582
   vertex 719740 4729195 1065.13305664
  endloop
 endfacet
 facet normal 6.89453119998 0.0 25600
  outer loop
   vertex 719900 4729035 1065.08996582
   vertex 719900 4729195 1065.08996582
   vertex 719740 4729195 1065.13305664
  endloop
 endfacet
 facet normal 6.89453119998 -0.156249600004 25600
  outer loop
   vertex 719740 4729195 1065.13305664
   vertex 719900 4729195 1065.08996582
   vertex 719740 4729355 1065.1340332
  endloop
 endfacet
 facet normal 7.05078079998 0.0 25600
  outer loop
   vertex 719900 4729195 1065.08996582
   vertex 719900 4729355 1065.08996582
   vertex 719740 4729355 1065.1340332
  endloop
 endfacet
 facet normal 7.05078079998 -0.156251199987 25600
  outer loop
   vertex 719740 4729355 1065.1340332
   vertex 719900 4729355 1065.08996582
   vertex 719740 4729515 1065.13500977
  endloop
 endfacet
 facet normal 7.20703199997 0.0 25600
  outer loop
   vertex 719900 4729355 1065.08996582
   vertex 719900 4729515 1065.08996582
   vertex 719740 4729515 1065.13500977
  endloop
 endfacet
 facet normal 7.20703199997 -30.2343744 25600
  outer loop
   vertex 719740 4729515 1065.13500977
   vertex 719900 4729515 1065.08996582
   vertex 719740 4729675 1065.32397461
  endloop
 endfacet
 facet normal 37.4414064 0.0 25600
  outer loop
   vertex 719900 4729515 1065.08996582
   vertex 719900 4729675 1065.08996582
   vertex 719740 4729675 1065.32397461
  endloop
 endfacet
 facet normal 37.4414064 -11471.2109376 25600
  outer loop
   vertex 719740 4729675 1065.32397461
   vertex 719900 4729675 1065.08996582
   vertex 719740 4729835 1137.01904297
  endloop
 endfacet
 facet normal 9254.570312 -2254.082032 25600
  outer loop
   vertex 719900 4729675 1065.08996582
   vertex 719900 4729835 1079.17797852
   vertex 719740 4729835 1137.01904297
  endloop
 endfacet
 facet normal 8.00781279999 740.1562496 25600
  outer loop
   vertex 719900 4730475 1069.71594238
   vertex 719900 4730635 1065.08996582
   vertex 719740 4730635 1065.14001465
  endloop
 endfacet
 facet normal 8.00781279999 -0.156249600004 25600
  outer loop
   vertex 719740 4730635 1065.14001465
   vertex 719900 4730635 1065.08996582
   vertex 719740 4730795 1065.14099121
  endloop
 endfacet
 facet normal 8.16406239999 0.0 25600
  outer loop
   vertex 719900 4730635 1065.08996582
   vertex 719900 4730795 1065.08996582
   vertex 719740 4730795 1065.14099121
  endloop
 endfacet
 facet normal 8.16406239999 -0.156249600004 25600
  outer loop
   vertex 719740 4730795 1065.14099121
   vertex 719900 4730795 1065.08996582
   vertex 719740 4730955 1065.14196777
  endloop
 endfacet
 facet normal 8.320312 0.0 25600
  outer loop
   vertex 719900 4730795 1065.08996582
   vertex 719900 4730955 1065.08996582
   vertex 719740 4730955 1065.14196777
  endloop
 endfacet
 facet normal 8.320312 -0.156251199987 25600
  outer loop
   vertex 719740 4730955 1065.14196777
   vertex 719900 4730955 1065.08996582
   vertex 719740 4731115 1065.14294434
  endloop
 endfacet
 facet normal 8.47656319998 0.0 25600
  outer loop
   vertex 719900 4730955 1065.08996582
   vertex 719900 4731115 1065.08996582
   vertex 719740 4731115 1065.14294434
  endloop
 endfacet
 facet normal 8.47656319998 -0.175780800018 25600
  outer loop
   vertex 719740 4731115 1065.14294434
   vertex 719900 4731115 1065.08996582
   vertex 719740 4731275 1065.14404297
  endloop
 endfacet
 facet normal 8.652344 0.0 25600
  outer loop
   vertex 719900 4731115 1065.08996582
   vertex 719900 4731275 1065.08996582
   vertex 719740 4731275 1065.14404297
  endloop
 endfacet
 facet normal 8.652344 -2579.0234368 25600
  outer loop
   vertex 719740 4731275 1065.14404297
   vertex 719900 4731275 1065.08996582
   vertex 719740 4731435 1081.26293945
  endloop
 endfacet
 facet normal 2587.6757808 0.0 25600
  outer loop
   vertex 719900 4731275 1065.08996582
   vertex 719900 4731435 1065.08996582
   vertex 719740 4731435 1081.26293945
  endloop
 endfacet
 facet normal -5158.0859376 -2227.5195312 25600
  outer loop
   vertex 719740 4736555 1240.34997559
   vertex 719900 4736555 1272.5880127
   vertex 719740 4736715 1254.27197266
  endloop
 endfacet
 facet normal -6.56249919997 2924.0039072 25600
  outer loop
   vertex 719900 4736555 1272.5880127
   vertex 719900 4736715 1254.31298828
   vertex 719740 4736715 1254.27197266
  endloop
 endfacet
 facet normal -6.56249919997 -0.332030399986 25600
  outer loop
   vertex 719740 4736715 1254.27197266
   vertex 719900 4736715 1254.31298828
   vertex 719740 4736875 1254.27404785
  endloop
 endfacet
 facet normal -6.54296960001 -0.312500800028 25600
  outer loop
   vertex 719900 4736715 1254.31298828
   vertex 719900 4736875 1254.31494141
   vertex 719740 4736875 1254.27404785
  endloop
 endfacet
 facet normal -6.54296960001 -20.1562496 25600
  outer loop
   vertex 719740 4736875 1254.27404785
   vertex 719900 4736875 1254.31494141
   vertex 719740 4737035 1254.40002441
  endloop
 endfacet
 facet normal -4015.9960944 -4029.6093744 25600
  outer loop
   vertex 719900 4736875 1254.31494141
   vertex 719900 4737035 1279.5
   vertex 719740 4737035 1254.40002441
  endloop
 endfacet
 facet normal -6572.6367184 -73.9062496 25600
  outer loop
   vertex 719900 4728875 1064.62805176
   vertex 720060 4728875 1105.70703125
   vertex 719900 4729035 1065.08996582
  endloop
 endfacet
 facet normal -1094.7265632 5404.0039056 25600
  outer loop
   vertex 720060 4728875 1105.70703125
   vertex 720060 4729035 1071.93200684
   vertex 719900 4729035 1065.08996582
  endloop
 endfacet
 facet normal -1094.7265632 0.0 25600
  outer loop
   vertex 719900 4729035 1065.08996582
   vertex 720060 4729035 1071.93200684
   vertex 719900 4729195 1065.08996582
  endloop
 endfacet
 facet normal 0.0 1094.7265632 25600
  outer loop
   vertex 720060 4729035 1071.93200684
   vertex 720060 4729195 1065.08996582
   vertex 719900 4729195 1065.08996582
  endloop
 endfacet
 facet normal 0.0 0.0 25600
  outer loop
   vertex 719900 4729195 1065.08996582
   vertex 720060 4729195 1065.08996582
   vertex 719900 4729355 1065.08996582
  endloop
 endfacet
 facet normal 0.0 0.0 25600
  outer loop
   vertex 720060 4729195 1065.08996582
   vertex 720060 4729355 1065.08996582
   vertex 719900 4729355 1065.08996582
  endloop
 endfacet
 facet normal 0.0 0.0 25600
  outer loop
   vertex 719900 4729355 1065.08996582
   vertex 720060 4729355 1065.08996582
   vertex 719900 4729515 1065.08996582
  endloop
 endfacet
 facet normal 0.0 0.0 25600
  outer loop
   vertex 720060 4729355 1065.08996582
   vertex 720060 4729515 1065.08996582
   vertex 719900 4729515 1065.08996582
  endloop
 endfacet
 facet normal 0.0 0.0 25600
  outer loop
   vertex 719900 4729515 1065.08996582
   vertex 720060 4729515 1065.08996582
   vertex 719900 4729675 1065.08996582
  endloop
 endfacet
 facet normal 0.0 0.0 25600
  outer loop
   vertex 720060 4729515 1065.08996582
   vertex 720060 4729675 1065.08996582
   vertex 719900 4729675 1065.08996582
  endloop
 endfacet
 facet normal 0.0 -2254.082032 25600
  outer loop
   vertex 719900 4729675 1065.08996582
   vertex 720060 4729675 1065.08996582
   vertex 719900 4729835 1079.17797852
  endloop
 endfacet
 facet normal 2254.082032 0.0 25600
  outer loop
   vertex 720060 4729675 1065.08996582
   vertex 720060 4729835 1065.08996582
   vertex 719900 4729835 1079.17797852
  endloop
 endfacet
 facet normal 2254.082032 -1524.9609376 25600
  outer loop
   vertex 719900 4729835 1079.17797852
   vertex 720060 4729835 1065.08996582
   vertex 719900 4729995 1088.70898438
  endloop
 endfacet
 facet normal 3779.0429696 0.0 25600
  outer loop
   vertex 720060 4729835 1065.08996582
   vertex 720060 4729995 1065.08996582
   vertex 719900 4729995 1088.70898438
  endloop
 endfacet
 facet normal 3779.0429696 1440.8007824 25600
  outer loop
   vertex 719900 4729995 1088.70898438
   vertex 720060 4729995 1065.08996582
   vertex 719900 4730155 1079.70397949
  endloop
 endfacet
 facet normal 2338.2421872 0.0 25600
  outer loop
   vertex 720060 4729995 1065.08996582
   vertex 720060 4730155 1065.08996582
   vertex 719900 4730155 1079.70397949
  endloop
 endfacet
 facet normal 2338.2421872 2338.2421872 25600
  outer loop
   vertex 719900 4730155 1079.70397949
   vertex 720060 4730155 1065.08996582
   vertex 719900 4730315 1065.08996582
  endloop
 endfacet
 facet normal 0.0 0.0 25600
  outer loop
   vertex 720060 4730155 1065.08996582
   vertex 720060 4730315 1065.08996582
   vertex 719900 4730315 1065.08996582
  endloop
 endfacet
 facet normal 0.0 -740.1562496 25600
  outer loop
   vertex 719900 4730315 1065.08996582
   vertex 720060 4730315 1065.08996582
   vertex 719900 4730475 1069.71594238
  endloop
 endfacet
 facet normal 740.1562496 0.0 25600
  outer loop
   vertex 720060 4730315 1065.08996582
   vertex 720060 4730475 1065.08996582
   vertex 719900 4730475 1069.71594238
  endloop
 endfacet
 facet normal 740.1562496 740.1562496 25600
  outer loop
   vertex 719900 4730475 1069.71594238
   vertex 720060 4730475 1065.08996582
   vertex 719900 4730635 1065.08996582
  endloop
 endfacet
 facet normal 0.0 0.0 25600
  outer loop
   vertex 720060 4730475 1065.08996582
   vertex 720060 4730635 1065.08996582
   vertex 719900 4730635 1065.08996582
  endloop
 endfacet
 facet normal 0.0 0.0 25600
  outer loop
   vertex 719900 4730635 1065.08996582
   vertex 720060 4730635 1065.08996582
   vertex 719900 4730795 1065.08996582
  endloop
 endfacet
 facet normal 0.0 0.0 25600
  outer loop
   vertex 720060 4730635 1065.08996582
   vertex 720060 4730795 1065.08996582
   vertex 719900 4730795 1065.08996582
  endloop
 endfacet
 facet normal 0.0 0.0 25600
  outer loop
   vertex 719900 4730795 1065.08996582
   vertex 720060 4730795 1065.08996582
   vertex 719900 4730955 1065.08996582
  endloop
 endfacet
 facet normal 0.0 0.0 25600
  outer loop
   vertex 720060 4730795 1065.08996582
   vertex 720060 4730955 1065.08996582
   vertex 719900 4730955 1065.08996582
  endloop
 endfacet
 facet normal 0.0 0.0 25600
  outer loop
   vertex 719900 4730955 1065.08996582
   vertex 720060 4730955 1065.08996582
   vertex 719900 4731115 1065.08996582
  endloop
 endfacet
 facet normal 0.0 0.0 25600
  outer loop
   vertex 720060 4730955 1065.08996582
   vertex 720060 4731115 1065.08996582
   vertex 719900 4731115 1065.08996582
  endloop
 endfacet
 facet normal 0.0 0.0 25600
  outer loop
   vertex 719900 4731115 1065.08996582
   vertex 720060 4731115 1065.08996582
   vertex 719900 4731275 1065.08996582
  endloop
 endfacet
 facet normal 0.0 0.0 25600
  outer loop
   vertex 720060 4731115 1065.08996582
   vertex 720060 4731275 1065.08996582
   vertex 719900 4731275 1065.08996582
  endloop
 endfacet
 facet normal 0.0 0.0 25600
  outer loop
   vertex 719900 4731275 1065.08996582
   vertex 720060 4731275 1065.08996582
   vertex 719900 4731435 1065.08996582
  endloop
 endfacet
 facet normal 0.0 0.0 25600
  outer loop
   vertex 720060 4731275 1065.08996582
   vertex 720060 4731435 1065.08996582
   vertex 719900 4731435 1065.08996582
  endloop
 endfacet
 facet normal 0.0 -3290.0781248 25600
  outer loop
   vertex 719900 4731435 1065.08996582
   vertex 720060 4731435 1065.08996582
   vertex 719900 4731595 1085.6529541
  endloop
 endfacet
 facet normal 3290.0781248 0.0 25600
  outer loop
   vertex 720060 4731435 1065.08996582
   vertex 720060 4731595 1065.08996582
   vertex 719900 4731595 1085.6529541
  endloop
 endfacet
 facet normal 2259.5312512 2924.0039072 25600
  outer loop
   vertex 719900 4736555 1272.5880127
   vertex 720060 4736555 1258.46594238
   vertex 719900 4736715 1254.31298828
  endloop
 endfacet
 facet normal -2833.125 -2168.652344 25600
  outer loop
   vertex 720060 4736555 1258.46594238
   vertex 720060 4736715 1272.02001953
   vertex 719900 4736715 1254.31298828
  endloop
 endfacet
 facet normal -2833.125 -0.312500800028 25600
  outer loop
   vertex 719900 4736715 1254.31298828
   vertex 720060 4736715 1272.02001953
   vertex 719900 4736875 1254.31494141
  endloop
 endfacet
 facet normal 0.0 0.0 25600
  outer loop
   vertex 720060 4729195 1065.08996582
   vertex 720220 4729195 1065.08996582
   vertex 720060 4729355 1065.08996582
  endloop
 endfacet
 facet normal 0.0 0.0 25600
  outer loop
   vertex 720220 4729195 1065.08996582
   vertex 720220 4729355 1065.08996582
   vertex 720060 4729355 1065.08996582
  endloop
 endfacet
 facet normal 0.0 0.0 25600
  outer loop
   vertex 720060 4729355 1065.08996582
   vertex 720220 4729355 1065.08996582
   vertex 720060 4729515 1065.08996582
  endloop
 endfacet
 facet normal 0.0 0.0 25600
  outer loop
   vertex 720220 4729355 1065.08996582
   vertex 720220 4729515 1065.08996582
   vertex 720060 4729515 1065.08996582
  endloop
 endfacet
 facet normal 0.0 0.0 25600
  outer loop
   vertex 720060 4729515 1065.08996582
   vertex 720220 4729515 1065.08996582
   vertex 720060 4729675 1065.08996582
  endloop
 endfacet
 facet normal 0.0 0.0 25600
  outer loop
   vertex 720220 4729515 1065.08996582
   vertex 720220 4729675 1065.08996582
   vertex 720060 4729675 1065.08996582
  endloop
 endfacet
 facet normal 0.0 0.0 25600
  outer loop
   vertex 720060 4729675 1065.08996582
   vertex 720220 4729675 1065.08996582
   vertex 720060 4729835 1065.08996582
  endloop
 endfacet
 facet normal 0.0 0.0 25600
  outer loop
   vertex 720220 4729675 1065.08996582
   vertex 720220 4729835 1065.08996582
   vertex 720060 4729835 1065.08996582
  endloop
 endfacet
 facet normal 0.0 0.0 25600
  outer loop
   vertex 720060 4729835 1065.08996582
   vertex 720220 4729835 1065.08996582
   vertex 720060 4729995 1065.08996582
  endloop
 endfacet
 facet normal -4514.7265632 -4514.7265632 25600
  outer loop
   vertex 720220 4729835 1065.08996582
   vertex 720220 4729995 1093.30700684
   vertex 720060 4729995 1065.08996582
  endloop
 endfacet
 facet normal -4514.7265632 0.0 25600
  outer loop
   vertex 720060 4729995 1065.08996582
   vertex 720220 4729995 1093.30700684
   vertex 720060 4730155 1065.08996582
  endloop
 endfacet
 facet normal -17503.6914064 0.0 25600
  outer loop
   vertex 720060 4730155 1065.08996582
   vertex 720220 4730155 1174.48803711
   vertex 720060 4730315 1065.08996582
  endloop
 endfacet
 facet normal -11781.2890624 0.0 25600
  outer loop
   vertex 720060 4730315 1065.08996582
   vertex 720220 4730315 1138.72302246
   vertex 720060 4730475 1065.08996582
  endloop
 endfacet
 facet normal -228.652344 11552.6367184 25600
  outer loop
   vertex 720220 4730315 1138.72302246
   vertex 720220 4730475 1066.51904297
   vertex 720060 4730475 1065.08996582
  endloop
 endfacet
 facet normal -228.652344 0.0 25600
  outer loop
   vertex 720060 4730475 1065.08996582
   vertex 720220 4730475 1066.51904297
   vertex 720060 4730635 1065.08996582
  endloop
 endfacet
 facet normal 0.0 228.652344 25600
  outer loop
   vertex 720220 4730475 1066.51904297
   vertex 720220 4730635 1065.08996582
   vertex 720060 4730635 1065.08996582
  endloop
 endfacet
 facet normal 0.0 0.0 25600
  outer loop
   vertex 720060 4730635 1065.08996582
   vertex 720220 4730635 1065.08996582
   vertex 720060 4730795 1065.08996582
  endloop
 endfacet
 facet normal 0.0 0.0 25600
  outer loop
   vertex 720220 4730635 1065.08996582
   vertex 720220 4730795 1065.08996582
   vertex 720060 4730795 1065.08996582
  endloop
 endfacet
 facet normal 0.0 0.0 25600
  outer loop
   vertex 720060 4730795 1065.08996582
   vertex 720220 4730795 1065.08996582
   vertex 720060 4730955 1065.08996582
  endloop
 endfacet
 facet normal 0.0 0.0 25600
  outer loop
   vertex 720220 4730795 1065.08996582
   vertex 720220 4730955 1065.08996582
   vertex 720060 4730955 1065.08996582
  endloop
 endfacet
 facet normal 0.0 0.0 25600
  outer loop
   vertex 720060 4730955 1065.08996582
   vertex 720220 4730955 1065.08996582
   vertex 720060 4731115 1065.08996582
  endloop
 endfacet
 facet normal 0.0 0.0 25600
  outer loop
   vertex 720220 4730955 1065.08996582
   vertex 720220 4731115 1065.08996582
   vertex 720060 4731115 1065.08996582
  endloop
 endfacet
 facet normal 0.0 0.0 25600
  outer loop
   vertex 720060 4731115 1065.08996582
   vertex 720220 4731115 1065.08996582
   vertex 720060 4731275 1065.08996582
  endloop
 endfacet
 facet normal 0.0 0.0 25600
  outer loop
   vertex 720220 4731115 1065.08996582
   vertex 720220 4731275 1065.08996582
   vertex 720060 4731275 1065.08996582
  endloop
 endfacet
 facet normal 0.0 0.0 25600
  outer loop
   vertex 720060 4731275 1065.08996582
   vertex 720220 4731275 1065.08996582
   vertex 720060 4731435 1065.08996582
  endloop
 endfacet
 facet normal 0.0 0.0 25600
  outer loop
   vertex 720220 4731275 1065.08996582
   vertex 720220 4731435 1065.08996582
   vertex 720060 4731435 1065.08996582
  endloop
 endfacet
 facet normal 0.0 0.0 25600
  outer loop
   vertex 720060 4731435 1065.08996582
   vertex 720220 4731435 1065.08996582
   vertex 720060 4731595 1065.08996582
  endloop
 endfacet
 facet normal 0.0 0.0 25600
  outer loop
   vertex 720220 4731435 1065.08996582
   vertex 720220 4731595 1065.08996582
   vertex 720060 4731595 1065.08996582
  endloop
 endfacet
 facet normal 0.0 -613.4375008 25600
  outer loop
   vertex 720060 4731595 1065.08996582
   vertex 720220 4731595 1065.08996582
   vertex 720060 4731755 1068.9239502
  endloop
 endfacet
 facet normal 613.4375008 0.0 25600
  outer loop
   vertex 720220 4731595 1065.08996582
   vertex 720220 4731755 1065.08996582
   vertex 720060 4731755 1068.9239502
  endloop
 endfacet
 facet normal 613.4375008 -8453.9257808 25600
  outer loop
   vertex 720060 4731755 1068.9239502
   vertex 720220 4731755 1065.08996582
   vertex 720060 4731915 1121.76098633
  endloop
 endfacet
 facet normal 9002.7148448 -64.6484368 25600
  outer loop
   vertex 720220 4731755 1065.08996582
   vertex 720220 4731915 1065.49401855
   vertex 720060 4731915 1121.76098633
  endloop
 endfacet
 facet normal -4172.4804688 0.0 25600
  outer loop
   vertex 720220 4729195 1065.08996582
   vertex 720380 4729195 1091.16796875
   vertex 720220 4729355 1065.08996582
  endloop
 endfacet
 facet normal 0.0 4172.4804688 25600
  outer loop
   vertex 720380 4729195 1091.16796875
   vertex 720380 4729355 1065.08996582
   vertex 720220 4729355 1065.08996582
  endloop
 endfacet
 facet normal 0.0 0.0 25600
  outer loop
   vertex 720220 4729355 1065.08996582
   vertex 720380 4729355 1065.08996582
   vertex 720220 4729515 1065.08996582
  endloop
 endfacet
 facet normal 0.0 0.0 25600
  outer loop
   vertex 720380 4729355 1065.08996582
   vertex 720380 4729515 1065.08996582
   vertex 720220 4729515 1065.08996582
  endloop
 endfacet
 facet normal 0.0 0.0 25600
  outer loop
   vertex 720220 4729515 1065.08996582
   vertex 720380 4729515 1065.08996582
   vertex 720220 4729675 1065.08996582
  endloop
 endfacet
 facet normal -7066.8945312 -7066.8945312 25600
  outer loop
   vertex 720380 4729515 1065.08996582
   vertex 720380 4729675 1109.25805664
   vertex 720220 4729675 1065.08996582
  endloop
 endfacet
 facet normal -7066.8945312 0.0 25600
  outer loop
   vertex 720220 4729675 1065.08996582
   vertex 720380 4729675 1109.25805664
   vertex 720220 4729835 1065.08996582
  endloop
 endfacet
 facet normal -5937.929688 0.0 25600
  outer loop
   vertex 720220 4730635 1065.08996582
   vertex 720380 4730635 1102.20202637
   vertex 720220 4730795 1065.08996582
  endloop
 endfacet
 facet normal 0.0 5937.929688 25600
  outer loop
   vertex 720380 4730635 1102.20202637
   vertex 720380 4730795 1065.08996582
   vertex 720220 4730795 1065.08996582
  endloop
 endfacet
 facet normal 0.0 0.0 25600
  outer loop
   vertex 720220 4730795 1065.08996582
   vertex 720380 4730795 1065.08996582
   vertex 720220 4730955 1065.08996582
  endloop
 endfacet
 facet normal 0.0 0.0 25600
  outer loop
   vertex 720380 4730795 1065.08996582
   vertex 720380 4730955 1065.08996582
   vertex 720220 4730955 1065.08996582
  endloop
 endfacet
 facet normal 0.0 0.0 25600
  outer loop
   vertex 720220 4730955 1065.08996582
   vertex 720380 4730955 1065.08996582
   vertex 720220 4731115 1065.08996582
  endloop
 endfacet
 facet normal 0.0 0.0 25600
  outer loop
   vertex 720380 4730955 1065.08996582
   vertex 720380 4731115 1065.08996582
   vertex 720220 4731115 1065.08996582
  endloop
 endfacet
 facet normal 0.0 0.0 25600
  outer loop
   vertex 720220 4731115 1065.08996582
   vertex 720380 4731115 1065.08996582
   vertex 720220 4731275 1065.08996582
  endloop
 endfacet
 facet normal 0.0 0.0 25600
  outer loop
   vertex 720380 4731115 1065.08996582
   vertex 720380 4731275 1065.08996582
   vertex 720220 4731275 1065.08996582
  endloop
 endfacet
 facet normal 0.0 0.0 25600
  outer loop
   vertex 720220 4731275 1065.08996582
   vertex 720380 4731275 1065.08996582
   vertex 720220 4731435 1065.08996582
  endloop
 endfacet
 facet normal 0.0 0.0 25600
  outer loop
   vertex 720380 4731275 1065.08996582
   vertex 720380 4731435 1065.08996582
   vertex 720220 4731435 1065.08996582
  endloop
 endfacet
 facet normal 0.0 0.0 25600
  outer loop
   vertex 720220 4731435 1065.08996582
   vertex 720380 4731435 1065.08996582
   vertex 720220 4731595 1065.08996582
  endloop
 endfacet
 facet normal 0.0 0.0 25600
  outer loop
   vertex 720380 4731435 1065.08996582
   vertex 720380 4731595 1065.08996582
   vertex 720220 4731595 1065.08996582
  endloop
 endfacet
 facet normal 0.0 0.0 25600
  outer loop
   vertex 720220 4731595 1065.08996582
   vertex 720380 4731595 1065.08996582
   vertex 720220 4731755 1065.08996582
  endloop
 endfacet
 facet normal 0.0 0.0 25600
  outer loop
   vertex 720380 4731595 1065.08996582
   vertex 720380 4731755 1065.08996582
   vertex 720220 4731755 1065.08996582
  endloop
 endfacet
 facet normal 0.0 -64.6484368 25600
  outer loop
   vertex 720220 4731755 1065.08996582
   vertex 720380 4731755 1065.08996582
   vertex 720220 4731915 1065.49401855
  endloop
 endfacet
 facet normal 64.6484368 0.0 25600
  outer loop
   vertex 720380 4731755 1065.08996582
   vertex 720380 4731915 1065.08996582
   vertex 720220 4731915 1065.49401855
  endloop
 endfacet
 facet normal 64.6484368 -2921.2695312 25600
  outer loop
   vertex 720220 4731915 1065.49401855
   vertex 720380 4731915 1065.08996582
   vertex 720220 4732075 1083.75195312
  endloop
 endfacet
 facet normal 2985.917968 0.0 25600
  outer loop
   vertex 720380 4731915 1065.08996582
   vertex 720380 4732075 1065.08996582
   vertex 720220 4732075 1083.75195312
  endloop
 endfacet
 facet normal 2985.917968 -3521.289064 25600
  outer loop
   vertex 720220 4732075 1083.75195312
   vertex 720380 4732075 1065.08996582
   vertex 720220 4732235 1105.76000977
  endloop
 endfacet
 facet normal 6507.207032 0.0 25600
  outer loop
   vertex 720380 4732075 1065.08996582
   vertex 720380 4732235 1065.08996582
   vertex 720220 4732235 1105.76000977
  endloop
 endfacet
 facet normal 6507.207032 3755.1953136 25600
  outer loop
   vertex 720220 4732235 1105.76000977
   vertex 720380 4732235 1065.08996582
   vertex 720220 4732395 1082.29003906
  endloop
 endfacet
 facet normal 2752.0117184 0.0 25600
  outer loop
   vertex 720380 4732235 1065.08996582
   vertex 720380 4732395 1065.08996582
   vertex 720220 4732395 1082.29003906
  endloop
 endfacet
 facet normal 2752.0117184 -3077.109376 25600
  outer loop
   vertex 720220 4732395 1082.29003906
   vertex 720380 4732395 1065.08996582
   vertex 720220 4732555 1101.52197266
  endloop
 endfacet
 facet normal 5829.1210944 0.0 25600
  outer loop
   vertex 720380 4732395 1065.08996582
   vertex 720380 4732555 1065.08996582
   vertex 720220 4732555 1101.52197266
  endloop
 endfacet
 facet normal -7794.570312 0.0 25600
  outer loop
   vertex 720380 4730795 1065.08996582
   vertex 720540 4730795 1113.80603027
   vertex 720380 4730955 1065.08996582
  endloop
 endfacet
 facet normal -3045.917968 0.0 25600
  outer loop
   vertex 720380 4730955 1065.08996582
   vertex 720540 4730955 1084.12695312
   vertex 720380 4731115 1065.08996582
  endloop
 endfacet
 facet normal -1825.7617184 0.0 25600
  outer loop
   vertex 720380 4731275 1065.08996582
   vertex 720540 4731275 1076.50097656
   vertex 720380 4731435 1065.08996582
  endloop
 endfacet
 facet normal 0.0 1825.7617184 25600
  outer loop
   vertex 720540 4731275 1076.50097656
   vertex 720540 4731435 1065.08996582
   vertex 720380 4731435 1065.08996582
  endloop
 endfacet
 facet normal 0.0 0.0 25600
  outer loop
   vertex 720380 4731435 1065.08996582
   vertex 720540 4731435 1065.08996582
   vertex 720380 4731595 1065.08996582
  endloop
 endfacet
 facet normal 0.0 0.0 25600
  outer loop
   vertex 720540 4731435 1065.08996582
   vertex 720540 4731595 1065.08996582
   vertex 720380 4731595 1065.08996582
  endloop
 endfacet
 facet normal 0.0 0.0 25600
  outer loop
   vertex 720380 4731595 1065.08996582
   vertex 720540 4731595 1065.08996582
   vertex 720380 4731755 1065.08996582
  endloop
 endfacet
 facet normal 0.0 0.0 25600
  outer loop
   vertex 720540 4731595 1065.08996582
   vertex 720540 4731755 1065.08996582
   vertex 720380 4731755 1065.08996582
  endloop
 endfacet
 facet normal 0.0 0.0 25600
  outer loop
   vertex 720380 4731755 1065.08996582
   vertex 720540 4731755 1065.08996582
   vertex 720380 4731915 1065.08996582
  endloop
 endfacet
 facet normal 0.0 0.0 25600
  outer loop
   vertex 720540 4731755 1065.08996582
   vertex 720540 4731915 1065.08996582
   vertex 720380 4731915 1065.08996582
  endloop
 endfacet
 facet normal 0.0 0.0 25600
  outer loop
   vertex 720380 4731915 1065.08996582
   vertex 720540 4731915 1065.08996582
   vertex 720380 4732075 1065.08996582
  endloop
 endfacet
 facet normal 0.0 0.0 25600
  outer loop
   vertex 720540 4731915 1065.08996582
   vertex 720540 4732075 1065.08996582
   vertex 720380 4732075 1065.08996582
  endloop
 endfacet
 facet normal 0.0 0.0 25600
  outer loop
   vertex 720380 4732075 1065.08996582
   vertex 720540 4732075 1065.08996582
   vertex 720380 4732235 1065.08996582
  endloop
 endfacet
 facet normal 0.0 0.0 25600
  outer loop
   vertex 720540 4732075 1065.08996582
   vertex 720540 4732235 1065.08996582
   vertex 720380 4732235 1065.08996582
  endloop
 endfacet
 facet normal 0.0 0.0 25600
  outer loop
   vertex 720380 4732235 1065.08996582
   vertex 720540 4732235 1065.08996582
   vertex 720380 4732395 1065.08996582
  endloop
 endfacet
 facet normal 0.0 0.0 25600
  outer loop
   vertex 720540 4732235 1065.08996582
   vertex 720540 4732395 1065.08996582
   vertex 720380 4732395 1065.08996582
  endloop
 endfacet
 facet normal 0.0 0.0 25600
  outer loop
   vertex 720380 4732395 1065.08996582
   vertex 720540 4732395 1065.08996582
   vertex 720380 4732555 1065.08996582
  endloop
 endfacet
 facet normal 0.0 0.0 25600
  outer loop
   vertex 720540 4732395 1065.08996582
   vertex 720540 4732555 1065.08996582
   vertex 720380 4732555 1065.08996582
  endloop
 endfacet
 facet normal 2786.0937504 0.0 25600
  outer loop
   vertex 720540 4732555 1065.08996582
   vertex 720540 4732715 1065.08996582
   vertex 720380 4732715 1082.50305176
  endloop
 endfacet
 facet normal -3361.6015632 0.0 25600
  outer loop
   vertex 720540 4731435 1065.08996582
   vertex 720700 4731435 1086.09997559
   vertex 720540 4731595 1065.08996582
  endloop
 endfacet
 facet normal 0.0 3361.6015632 25600
  outer loop
   vertex 720700 4731435 1086.09997559
   vertex 720700 4731595 1065.08996582
   vertex 720540 4731595 1065.08996582
  endloop
 endfacet
 facet normal 0.0 0.0 25600
  outer loop
   vertex 720540 4731595 1065.08996582
   vertex 720700 4731595 1065.08996582
   vertex 720540 4731755 1065.08996582
  endloop
 endfacet
 facet normal 0.0 0.0 25600
  outer loop
   vertex 720700 4731595 1065.08996582
   vertex 720700 4731755 1065.08996582
   vertex 720540 4731755 1065.08996582
  endloop
 endfacet
 facet normal 0.0 0.0 25600
  outer loop
   vertex 720540 4731755 1065.08996582
   vertex 720700 4731755 1065.08996582
   vertex 720540 4731915 1065.08996582
  endloop
 endfacet
 facet normal 0.0 0.0 25600
  outer loop
   vertex 720700 4731755 1065.08996582
   vertex 720700 4731915 1065.08996582
   vertex 720540 4731915 1065.08996582
  endloop
 endfacet
 facet normal 0.0 0.0 25600
  outer loop
   vertex 720540 4731915 1065.08996582
   vertex 720700 4731915 1065.08996582
   vertex 720540 4732075 1065.08996582
  endloop
 endfacet
 facet normal 0.0 0.0 25600
  outer loop
   vertex 720700 4731915 1065.08996582
   vertex 720700 4732075 1065.08996582
   vertex 720540 4732075 1065.08996582
  endloop
 endfacet
 facet normal 0.0 0.0 25600
  outer loop
   vertex 720540 4732075 1065.08996582
   vertex 720700 4732075 1065.08996582
   vertex 720540 4732235 1065.08996582
  endloop
 endfacet
 facet normal 0.0 0.0 25600
  outer loop
   vertex 720700 4732075 1065.08996582
   vertex 720700 4732235 1065.08996582
   vertex 720540 4732235 1065.08996582
  endloop
 endfacet
 facet normal 0.0 0.0 25600
  outer loop
   vertex 720540 4732235 1065.08996582
   vertex 720700 4732235 1065.08996582
   vertex 720540 4732395 1065.08996582
  endloop
 endfacet
 facet normal 0.0 0.0 25600
  outer loop
   vertex 720700 4732235 1065.08996582
   vertex 720700 4732395 1065.08996582
   vertex 720540 4732395 1065.08996582
  endloop
 endfacet
 facet normal 0.0 0.0 25600
  outer loop
   vertex 720540 4732395 1065.08996582
   vertex 720700 4732395 1065.08996582
   vertex 720540 4732555 1065.08996582
  endloop
 endfacet
 facet normal 0.0 0.0 25600
  outer loop
   vertex 720700 4732395 1065.08996582
   vertex 720700 4732555 1065.08996582
   vertex 720540 4732555 1065.08996582
  endloop
 endfacet
 facet normal 0.0 0.0 25600
  outer loop
   vertex 720540 4732555 1065.08996582
   vertex 720700 4732555 1065.08996582
   vertex 720540 4732715 1065.08996582
  endloop
 endfacet
 facet normal 0.0 0.0 25600
  outer loop
   vertex 720700 4732555 1065.08996582
   vertex 720700 4732715 1065.08996582
   vertex 720540 4732715 1065.08996582
  endloop
 endfacet
 facet normal 0.0 -3212.6367184 25600
  outer loop
   vertex 720540 4732715 1065.08996582
   vertex 720700 4732715 1065.08996582
   vertex 720540 4732875 1085.16894531
  endloop
 endfacet
 facet normal 3212.6367184 0.0 25600
  outer loop
   vertex 720700 4732715 1065.08996582
   vertex 720700 4732875 1065.08996582
   vertex 720540 4732875 1085.16894531
  endloop
 endfacet
 facet normal -6565.6054688 0.0 25600
  outer loop
   vertex 720700 4731755 1065.08996582
   vertex 720860 4731755 1106.125
   vertex 720700 4731915 1065.08996582
  endloop
 endfacet
 facet normal -6341.6015632 0.0 25600
  outer loop
   vertex 720700 4731915 1065.08996582
   vertex 720860 4731915 1104.72497559
   vertex 720700 4732075 1065.08996582
  endloop
 endfacet
 facet normal -8722.5585936 0.0 25600
  outer loop
   vertex 720700 4732075 1065.08996582
   vertex 720860 4732075 1119.60595703
   vertex 720700 4732235 1065.08996582
  endloop
 endfacet
 facet normal -3.847656 8718.7109376 25600
  outer loop
   vertex 720860 4732075 1119.60595703
   vertex 720860 4732235 1065.11401367
   vertex 720700 4732235 1065.08996582
  endloop
 endfacet
 facet normal -3.847656 0.0 25600
  outer loop
   vertex 720700 4732235 1065.08996582
   vertex 720860 4732235 1065.11401367
   vertex 720700 4732395 1065.08996582
  endloop
 endfacet
 facet normal -4.0039056 -0.156249600004 25600
  outer loop
   vertex 720860 4732235 1065.11401367
   vertex 720860 4732395 1065.11499023
   vertex 720700 4732395 1065.08996582
  endloop
 endfacet
 facet normal -4.0039056 0.0 25600
  outer loop
   vertex 720700 4732395 1065.08996582
   vertex 720860 4732395 1065.11499023
   vertex 720700 4732555 1065.08996582
  endloop
 endfacet
 facet normal -94.7265632 -90.7226576 25600
  outer loop
   vertex 720860 4732395 1065.11499023
   vertex 720860 4732555 1065.68200684
   vertex 720700 4732555 1065.08996582
  endloop
 endfacet
 facet normal -94.7265632 0.0 25600
  outer loop
   vertex 720700 4732555 1065.08996582
   vertex 720860 4732555 1065.68200684
   vertex 720700 4732715 1065.08996582
  endloop
 endfacet
 facet normal -146.7187504 -51.9921872 25600
  outer loop
   vertex 720860 4732555 1065.68200684
   vertex 720860 4732715 1066.00695801
   vertex 720700 4732715 1065.08996582
  endloop
 endfacet
 facet normal -146.7187504 0.0 25600
  outer loop
   vertex 720700 4732715 1065.08996582
   vertex 720860 4732715 1066.00695801
   vertex 720700 4732875 1065.08996582
  endloop
 endfacet
 facet normal -265.7617184 -119.042968 25600
  outer loop
   vertex 720860 4732715 1066.00695801
   vertex 720860 4732875 1066.75097656
   vertex 720700 4732875 1065.08996582
  endloop
 endfacet
 facet normal -265.7617184 0.0 25600
  outer loop
   vertex 720700 4732875 1065.08996582
   vertex 720860 4732875 1066.75097656
   vertex 720700 4733035 1065.08996582
  endloop
 endfacet
 facet normal -56.4843744 209.277344 25600
  outer loop
   vertex 720860 4732875 1066.75097656
   vertex 720860 4733035 1065.44299316
   vertex 720700 4733035 1065.08996582
  endloop
 endfacet
 facet normal -56.4843744 0.0 25600
  outer loop
   vertex 720700 4733035 1065.08996582
   vertex 720860 4733035 1065.44299316
   vertex 720700 4733195 1065.08996582
  endloop
 endfacet
 facet normal -347.8515632 -291.3671888 25600
  outer loop
   vertex 720860 4733035 1065.44299316
   vertex 720860 4733195 1067.26403809
   vertex 720700 4733195 1065.08996582
  endloop
 endfacet
 facet normal -347.8515632 0.0 25600
  outer loop
   vertex 720700 4733195 1065.08996582
   vertex 720860 4733195 1067.26403809
   vertex 720700 4733355 1065.08996582
  endloop
 endfacet
 facet normal -991.679688 -643.8281248 25600
  outer loop
   vertex 720860 4733195 1067.26403809
   vertex 720860 4733355 1071.28796387
   vertex 720700 4733355 1065.08996582
  endloop
 endfacet
 facet normal -991.679688 0.0 25600
  outer loop
   vertex 720700 4733355 1065.08996582
   vertex 720860 4733355 1071.28796387
   vertex 720700 4733515 1065.08996582
  endloop
 endfacet
 facet normal -898.2421872 -119.042968 25600
  outer loop
   vertex 720860 4732715 1066.00695801
   vertex 721020 4732715 1071.62097168
   vertex 720860 4732875 1066.75097656
  endloop
 endfacet
 facet normal -792.6367184 -13.4374992 25600
  outer loop
   vertex 721020 4732715 1071.62097168
   vertex 721020 4732875 1071.70495605
   vertex 720860 4732875 1066.75097656
  endloop
 endfacet
 facet normal -837.1289072 -291.3671888 25600
  outer loop
   vertex 720860 4733035 1065.44299316
   vertex 721020 4733035 1070.67504883
   vertex 720860 4733195 1067.26403809
  endloop
 endfacet
endsolid