solid
 facet normal -6841.1132816 -2732.9687504 25600
  outer loop
   vertex 703420 4729515 1274.76293945
   vertex 703420 4729675 1291.84399414
   vertex 703260 4729675 1249.08703613
  endloop
 endfacet
 facet normal 3872.7929696 -2980.3320304 25600
  outer loop
   vertex 703580 4728715 1171.9329834
   vertex 703580 4728875 1190.56005859
   vertex 703420 4728875 1214.76501465
  endloop
 endfacet
 facet normal -2072.4804688 -1586.3867184 25600
  outer loop
   vertex 703420 4729355 1264.84802246
   vertex 703580 4729355 1277.80102539
   vertex 703420 4729515 1274.76293945
  endloop
 endfacet
 facet normal -4100.1757824 -3614.082032 25600
  outer loop
   vertex 703580 4729355 1277.80102539
   vertex 703580 4729515 1300.38903809
   vertex 703420 4729515 1274.76293945
  endloop
 endfacet
 facet normal -543.6718752 -732.4804688 25600
  outer loop
   vertex 703740 4728715 1189.38000488
   vertex 703740 4728875 1193.95800781
   vertex 703580 4728875 1190.56005859
  endloop
 endfacet
 facet normal -1404.9609376 -5659.1992192 25600
  outer loop
   vertex 703900 4728555 1162.79101562
   vertex 703900 4728715 1198.16101074
   vertex 703740 4728715 1189.38000488
  endloop
 endfacet
 facet normal -1404.9609376 -732.4804688 25600
  outer loop
   vertex 703740 4728715 1189.38000488
   vertex 703900 4728715 1198.16101074
   vertex 703740 4728875 1193.95800781
  endloop
 endfacet
 facet normal -3106.7187504 -2434.2382816 25600
  outer loop
   vertex 703900 4728715 1198.16101074
   vertex 703900 4728875 1213.375
   vertex 703740 4728875 1193.95800781
  endloop
 endfacet
 facet normal -3106.7187504 -3482.8710944 25600
  outer loop
   vertex 703740 4728875 1193.95800781
   vertex 703900 4728875 1213.375
   vertex 703740 4729035 1215.72595215
  endloop
 endfacet
 facet normal -3153.2812496 -3820.0 25600
  outer loop
   vertex 704060 4728555 1193.99401855
   vertex 704060 4728715 1217.86901855
   vertex 703900 4728715 1198.16101074
  endloop
 endfacet
 facet normal -3153.2812496 -2434.2382816 25600
  outer loop
   vertex 703900 4728715 1198.16101074
   vertex 704060 4728715 1217.86901855
   vertex 703900 4728875 1213.375
  endloop
 endfacet
 facet normal -3452.9492192 -93.9062496 25600
  outer loop
   vertex 704220 4728395 1214.98803711
   vertex 704220 4728555 1215.57495117
   vertex 704060 4728555 1193.99401855
  endloop
 endfacet
 facet normal -3452.9492192 -3820.0 25600
  outer loop
   vertex 704060 4728555 1193.99401855
   vertex 704220 4728555 1215.57495117
   vertex 704060 4728715 1217.86901855
  endloop
 endfacet
 facet normal -1489.5898432 -93.9062496 25600
  outer loop
   vertex 704220 4728395 1214.98803711
   vertex 704380 4728395 1224.29797363
   vertex 704220 4728555 1215.57495117
  endloop
 endfacet
 facet normal -1310.2539072 85.4296864 25600
  outer loop
   vertex 704380 4728395 1224.29797363
   vertex 704380 4728555 1223.76403809
   vertex 704220 4728555 1215.57495117
  endloop
 endfacet
 facet normal -1439.5117184 998.8867184 25600
  outer loop
   vertex 704540 4728395 1239.00402832
   vertex 704540 4728555 1232.76098633
   vertex 704380 4728555 1223.76403809
  endloop
 endfacet
 facet normal -1439.5117184 -4534.7070304 25600
  outer loop
   vertex 704380 4728555 1223.76403809
   vertex 704540 4728555 1232.76098633
   vertex 704380 4728715 1252.10595703
  endloop
 endfacet
 facet normal -2730.722656 63.5156256 25600
  outer loop
   vertex 704700 4728395 1250.22497559
   vertex 704700 4728555 1249.82800293
   vertex 704540 4728555 1232.76098633
  endloop
 endfacet
 facet normal -2966.7187504 361.7578128 25600
  outer loop
   vertex 704860 4728395 1270.63098145
   vertex 704860 4728555 1268.36999512
   vertex 704700 4728555 1249.82800293
  endloop
 endfacet
endsolid