solid
 facet normal -2716.4843744 -580.9765616 25600
  outer loop
   vertex 703100 4735115 1172.56994629
   vertex 703260 4735115 1189.54797363
   vertex 703100 4735275 1176.2010498
  endloop
 endfacet
 facet normal 1330.4101552 3465.917968 25600
  outer loop
   vertex 703260 4735115 1189.54797363
   vertex 703260 4735275 1167.88598633
   vertex 703100 4735275 1176.2010498
  endloop
 endfacet
 facet normal 1330.4101552 -3018.7109376 25600
  outer loop
   vertex 703100 4735275 1176.2010498
   vertex 703260 4735275 1167.88598633
   vertex 703100 4735435 1195.06799316
  endloop
 endfacet
 facet normal 2565.4296864 -1783.6914064 25600
  outer loop
   vertex 703260 4735275 1167.88598633
   vertex 703260 4735435 1179.03405762
   vertex 703100 4735435 1195.06799316
  endloop
 endfacet
 facet normal -987.9882816 -2138.2421872 25600
  outer loop
   vertex 703260 4735595 1175.00402832
   vertex 703420 4735595 1181.17895508
   vertex 703260 4735755 1188.36804199
  endloop
 endfacet
 facet normal -1171.679688 -2321.9335936 25600
  outer loop
   vertex 703420 4735595 1181.17895508
   vertex 703420 4735755 1195.69104004
   vertex 703260 4735755 1188.36804199
  endloop
 endfacet
 facet normal -1171.679688 -1631.0351568 25600
  outer loop
   vertex 703260 4735755 1188.36804199
   vertex 703420 4735755 1195.69104004
   vertex 703260 4735915 1198.56201172
  endloop
 endfacet
 facet normal 402.2460944 -57.1093744 25600
  outer loop
   vertex 703420 4735755 1195.69104004
   vertex 703420 4735915 1196.04797363
   vertex 703260 4735915 1198.56201172
  endloop
 endfacet
 facet normal 1454.082032 -65.4492192 25600
  outer loop
   vertex 703420 4735915 1196.04797363
   vertex 703420 4736075 1196.45703125
   vertex 703260 4736075 1205.54504395
  endloop
 endfacet
 facet normal 2177.4414064 8.80859359997 25600
  outer loop
   vertex 703420 4736235 1196.25500488
   vertex 703420 4736395 1196.19995117
   vertex 703260 4736395 1209.80895996
  endloop
 endfacet
 facet normal 3950.2343744 -76.1718752 25600
  outer loop
   vertex 703420 4736395 1196.19995117
   vertex 703420 4736555 1196.67602539
   vertex 703260 4736555 1221.36499023
  endloop
 endfacet
 facet normal 3950.2343744 -1247.207032 25600
  outer loop
   vertex 703260 4736555 1221.36499023
   vertex 703420 4736555 1196.67602539
   vertex 703260 4736715 1229.16003418
  endloop
 endfacet
 facet normal 1629.1210944 -3568.320312 25600
  outer loop
   vertex 703420 4736555 1196.67602539
   vertex 703420 4736715 1218.97802734
   vertex 703260 4736715 1229.16003418
  endloop
 endfacet
 facet normal -3805.1367184 4202.5585936 25600
  outer loop
   vertex 703420 4735435 1207.44494629
   vertex 703580 4735435 1231.22705078
   vertex 703420 4735595 1181.17895508
  endloop
 endfacet
 facet normal -5263.2031248 2744.4921872 25600
  outer loop
   vertex 703580 4735435 1231.22705078
   vertex 703580 4735595 1214.07397461
   vertex 703420 4735595 1181.17895508
  endloop
 endfacet
 facet normal -5263.2031248 -2321.9335936 25600
  outer loop
   vertex 703420 4735595 1181.17895508
   vertex 703580 4735595 1214.07397461
   vertex 703420 4735755 1195.69104004
  endloop
 endfacet
 facet normal -2805.2734368 135.9960944 25600
  outer loop
   vertex 703580 4735595 1214.07397461
   vertex 703580 4735755 1213.22399902
   vertex 703420 4735755 1195.69104004
  endloop
 endfacet
 facet normal -2805.2734368 -57.1093744 25600
  outer loop
   vertex 703420 4735755 1195.69104004
   vertex 703580 4735755 1213.22399902
   vertex 703420 4735915 1196.04797363
  endloop
 endfacet
 facet normal -3095.8398448 -347.6757824 25600
  outer loop
   vertex 703580 4735755 1213.22399902
   vertex 703580 4735915 1215.39697266
   vertex 703420 4735915 1196.04797363
  endloop
 endfacet
 facet normal -3095.8398448 -65.4492192 25600
  outer loop
   vertex 703420 4735915 1196.04797363
   vertex 703580 4735915 1215.39697266
   vertex 703420 4736075 1196.45703125
  endloop
 endfacet
 facet normal -2015.3515632 1015.0390624 25600
  outer loop
   vertex 703580 4735915 1215.39697266
   vertex 703580 4736075 1209.05297852
   vertex 703420 4736075 1196.45703125
  endloop
 endfacet
 facet normal -2015.3515632 32.3242192 25600
  outer loop
   vertex 703420 4736075 1196.45703125
   vertex 703580 4736075 1209.05297852
   vertex 703420 4736235 1196.25500488
  endloop
 endfacet
 facet normal -1581.6015632 466.0742192 25600
  outer loop
   vertex 703580 4736075 1209.05297852
   vertex 703580 4736235 1206.14001465
   vertex 703420 4736235 1196.25500488
  endloop
 endfacet
 facet normal -1581.6015632 8.80859359997 25600
  outer loop
   vertex 703420 4736235 1196.25500488
   vertex 703580 4736235 1206.14001465
   vertex 703420 4736395 1196.19995117
  endloop
 endfacet
 facet normal -506.5625008 1083.847656 25600
  outer loop
   vertex 703580 4736235 1206.14001465
   vertex 703580 4736395 1199.3659668
   vertex 703420 4736395 1196.19995117
  endloop
 endfacet
 facet normal -506.5625008 -76.1718752 25600
  outer loop
   vertex 703420 4736395 1196.19995117
   vertex 703580 4736395 1199.3659668
   vertex 703420 4736555 1196.67602539
  endloop
 endfacet
 facet normal 111.0351568 541.4257824 25600
  outer loop
   vertex 703580 4736395 1199.3659668
   vertex 703580 4736555 1195.98205566
   vertex 703420 4736555 1196.67602539
  endloop
 endfacet
 facet normal 111.0351568 -3568.320312 25600
  outer loop
   vertex 703420 4736555 1196.67602539
   vertex 703580 4736555 1195.98205566
   vertex 703420 4736715 1218.97802734
  endloop
 endfacet
 facet normal 3713.2812496 33.9257808 25600
  outer loop
   vertex 703580 4736555 1195.98205566
   vertex 703580 4736715 1195.77001953
   vertex 703420 4736715 1218.97802734
  endloop
 endfacet
endsolid