solid
 facet normal 375.19531264 -684.48242176 25600
  outer loop
   vertex 719580 4722955 852.32800293
   vertex 719580 4723115 856.606018066
   vertex 719420 4723115 858.95098877
  endloop
 endfacet
 facet normal -2315.68359376 -2989.92187504 25600
  outer loop
   vertex 719580 4723115 856.606018066
   vertex 719580 4723275 875.293029785
   vertex 719420 4723275 860.820007324
  endloop
 endfacet
 facet normal -392.8027344 -684.48242176 25600
  outer loop
   vertex 719580 4722955 852.32800293
   vertex 719740 4722955 854.78302002
   vertex 719580 4723115 856.606018066
  endloop
 endfacet
 facet normal 13.125 -278.55468736 25600
  outer loop
   vertex 719740 4722955 854.78302002
   vertex 719740 4723115 856.523986816
   vertex 719580 4723115 856.606018066
  endloop
 endfacet
 facet normal 13.125 -2989.92187504 25600
  outer loop
   vertex 719580 4723115 856.606018066
   vertex 719740 4723115 856.523986816
   vertex 719580 4723275 875.293029785
  endloop
 endfacet
 facet normal -2196.47460944 -5199.52148448 25600
  outer loop
   vertex 719740 4723115 856.523986816
   vertex 719740 4723275 889.020996094
   vertex 719580 4723275 875.293029785
  endloop
 endfacet
 facet normal -2196.47460944 1032.64648432 25600
  outer loop
   vertex 719580 4723275 875.293029785
   vertex 719740 4723275 889.020996094
   vertex 719580 4723435 868.838989258
  endloop
 endfacet
 facet normal 582.40234384 3811.5234376 25600
  outer loop
   vertex 719740 4723275 889.020996094
   vertex 719740 4723435 865.198974609
   vertex 719580 4723435 868.838989258
  endloop
 endfacet
 facet normal 206.88476576 -278.55468736 25600
  outer loop
   vertex 719740 4722955 854.78302002
   vertex 719900 4722955 853.489990234
   vertex 719740 4723115 856.523986816
  endloop
 endfacet
 facet normal -330.40039072 -815.83984384 25600
  outer loop
   vertex 719900 4722955 853.489990234
   vertex 719900 4723115 858.588989258
   vertex 719740 4723115 856.523986816
  endloop
 endfacet
 facet normal -330.40039072 -5199.52148448 25600
  outer loop
   vertex 719740 4723115 856.523986816
   vertex 719900 4723115 858.588989258
   vertex 719740 4723275 889.020996094
  endloop
 endfacet
 facet normal 1935.19531248 -2933.92578128 25600
  outer loop
   vertex 719900 4723115 858.588989258
   vertex 719900 4723275 876.926025391
   vertex 719740 4723275 889.020996094
  endloop
 endfacet
 facet normal 1935.19531248 3811.5234376 25600
  outer loop
   vertex 719740 4723275 889.020996094
   vertex 719900 4723275 876.926025391
   vertex 719740 4723435 865.198974609
  endloop
 endfacet
 facet normal -36.48437504 -815.83984384 25600
  outer loop
   vertex 719900 4722955 853.489990234
   vertex 720060 4722955 853.718017578
   vertex 719900 4723115 858.588989258
  endloop
 endfacet
 facet normal 449.75585936 -329.59960944 25600
  outer loop
   vertex 720060 4722955 853.718017578
   vertex 720060 4723115 855.778015137
   vertex 719900 4723115 858.588989258
  endloop
 endfacet
 facet normal 449.75585936 -2933.92578128 25600
  outer loop
   vertex 719900 4723115 858.588989258
   vertex 720060 4723115 855.778015137
   vertex 719900 4723275 876.926025391
  endloop
 endfacet
 facet normal -1220.80078112 -4604.48242176 25600
  outer loop
   vertex 720060 4723115 855.778015137
   vertex 720060 4723275 884.556030273
   vertex 719900 4723275 876.926025391
  endloop
 endfacet
 facet normal -1729.12109376 -329.59960944 25600
  outer loop
   vertex 720060 4722955 853.718017578
   vertex 720220 4722955 864.525024414
   vertex 720060 4723115 855.778015137
  endloop
 endfacet
 facet normal -4479.03320304 -3079.51171872 25600
  outer loop
   vertex 720220 4722955 864.525024414
   vertex 720220 4723115 883.771972656
   vertex 720060 4723115 855.778015137
  endloop
 endfacet
 facet normal -4479.03320304 -4604.48242176 25600
  outer loop
   vertex 720060 4723115 855.778015137
   vertex 720220 4723115 883.771972656
   vertex 720060 4723275 884.556030273
  endloop
 endfacet
endsolid