solid
 facet normal -3542.23632816 6646.71874928 25600
  outer loop
   vertex 702620 4727915 1020.1619873
   vertex 702620 4728075 978.619995117
   vertex 702460 4728075 956.481018066
  endloop
 endfacet
 facet normal -3542.23632816 -534.23828128 25600
  outer loop
   vertex 702460 4728075 956.481018066
   vertex 702620 4728075 978.619995117
   vertex 702460 4728235 959.820007324
  endloop
 endfacet
 facet normal -2750.2343744 -2918.3984368 25600
  outer loop
   vertex 715420 4739115 1512.66796875
   vertex 715420 4739275 1530.90795898
   vertex 715260 4739275 1513.71899414
  endloop
 endfacet
 facet normal -1198.8867184 -2918.3984368 25600
  outer loop
   vertex 715420 4739115 1512.66796875
   vertex 715580 4739115 1520.16101074
   vertex 715420 4739275 1530.90795898
  endloop
 endfacet
 facet normal -2287.207032 -4006.7187504 25600
  outer loop
   vertex 715580 4739115 1520.16101074
   vertex 715580 4739275 1545.20300293
   vertex 715420 4739275 1530.90795898
  endloop
 endfacet
 facet normal -2287.207032 -3363.8476576 25600
  outer loop
   vertex 715420 4739275 1530.90795898
   vertex 715580 4739275 1545.20300293
   vertex 715420 4739435 1551.93200684
  endloop
 endfacet
 facet normal -3635.3515616 -4711.9921872 25600
  outer loop
   vertex 715580 4739275 1545.20300293
   vertex 715580 4739435 1574.6529541
   vertex 715420 4739435 1551.93200684
  endloop
 endfacet
 facet normal -806.875 -4006.7187504 25600
  outer loop
   vertex 715580 4739115 1520.16101074
   vertex 715740 4739115 1525.20397949
   vertex 715580 4739275 1545.20300293
  endloop
 endfacet
 facet normal -539.6874992 -3739.5312496 25600
  outer loop
   vertex 715740 4739115 1525.20397949
   vertex 715740 4739275 1548.5760498
   vertex 715580 4739275 1545.20300293
  endloop
 endfacet
 facet normal -539.6874992 -4711.9921872 25600
  outer loop
   vertex 715580 4739275 1545.20300293
   vertex 715740 4739275 1548.5760498
   vertex 715580 4739435 1574.6529541
  endloop
 endfacet
 facet normal -554.7265632 -4727.0312512 25600
  outer loop
   vertex 715740 4739275 1548.5760498
   vertex 715740 4739435 1578.11999512
   vertex 715580 4739435 1574.6529541
  endloop
 endfacet
 facet normal -554.7265632 -4334.2382816 25600
  outer loop
   vertex 715580 4739435 1574.6529541
   vertex 715740 4739435 1578.11999512
   vertex 715580 4739595 1601.74194336
  endloop
 endfacet
 facet normal 175.5078128 -3604.0039056 25600
  outer loop
   vertex 715740 4739435 1578.11999512
   vertex 715740 4739595 1600.64501953
   vertex 715580 4739595 1601.74194336
  endloop
 endfacet
 facet normal -2184.3164064 -2029.5898432 25600
  outer loop
   vertex 715900 4738955 1526.17102051
   vertex 715900 4739115 1538.85595703
   vertex 715740 4739115 1525.20397949
  endloop
 endfacet
 facet normal -2184.3164064 -3739.5312496 25600
  outer loop
   vertex 715740 4739115 1525.20397949
   vertex 715900 4739115 1538.85595703
   vertex 715740 4739275 1548.5760498
  endloop
 endfacet
 facet normal -3419.8242192 -4975.0390624 25600
  outer loop
   vertex 715900 4739115 1538.85595703
   vertex 715900 4739275 1569.94995117
   vertex 715740 4739275 1548.5760498
  endloop
 endfacet
 facet normal -3419.8242192 -4727.0312512 25600
  outer loop
   vertex 715740 4739275 1548.5760498
   vertex 715900 4739275 1569.94995117
   vertex 715740 4739435 1578.11999512
  endloop
 endfacet
 facet normal -4034.3945312 -5341.6015632 25600
  outer loop
   vertex 715900 4739275 1569.94995117
   vertex 715900 4739435 1603.33496094
   vertex 715740 4739435 1578.11999512
  endloop
 endfacet
 facet normal -4034.3945312 -3604.0039056 25600
  outer loop
   vertex 715740 4739435 1578.11999512
   vertex 715900 4739435 1603.33496094
   vertex 715740 4739595 1600.64501953
  endloop
 endfacet
 facet normal -644.804688 -214.4140624 25600
  outer loop
   vertex 715900 4739435 1603.33496094
   vertex 715900 4739595 1604.67504883
   vertex 715740 4739595 1600.64501953
  endloop
 endfacet
 facet normal 367.6757808 -2029.5898432 25600
  outer loop
   vertex 715900 4738955 1526.17102051
   vertex 716060 4738955 1523.87304688
   vertex 715900 4739115 1538.85595703
  endloop
 endfacet
 facet normal -1870.5664064 -4267.8320304 25600
  outer loop
   vertex 716060 4738955 1523.87304688
   vertex 716060 4739115 1550.54699707
   vertex 715900 4739115 1538.85595703
  endloop
 endfacet
 facet normal -1870.5664064 -4975.0390624 25600
  outer loop
   vertex 715900 4739115 1538.85595703
   vertex 716060 4739115 1550.54699707
   vertex 715900 4739275 1569.94995117
  endloop
 endfacet
 facet normal -3954.4140624 -7058.8867184 25600
  outer loop
   vertex 716060 4739115 1550.54699707
   vertex 716060 4739275 1594.66503906
   vertex 715900 4739275 1569.94995117
  endloop
 endfacet
 facet normal -3954.4140624 -5341.6015632 25600
  outer loop
   vertex 715900 4739275 1569.94995117
   vertex 716060 4739275 1594.66503906
   vertex 715900 4739435 1603.33496094
  endloop
 endfacet
 facet normal -601.6015616 -1988.7890624 25600
  outer loop
   vertex 716060 4739275 1594.66503906
   vertex 716060 4739435 1607.0949707
   vertex 715900 4739435 1603.33496094
  endloop
 endfacet
 facet normal -601.6015616 -214.4140624 25600
  outer loop
   vertex 715900 4739435 1603.33496094
   vertex 716060 4739435 1607.0949707
   vertex 715900 4739595 1604.67504883
  endloop
 endfacet
 facet normal -534.8632816 -147.6757824 25600
  outer loop
   vertex 716060 4739435 1607.0949707
   vertex 716060 4739595 1608.01794434
   vertex 715900 4739595 1604.67504883
  endloop
 endfacet
 facet normal -534.8632816 -2654.3945312 25600
  outer loop
   vertex 715900 4739595 1604.67504883
   vertex 716060 4739595 1608.01794434
   vertex 715900 4739755 1621.26501465
  endloop
 endfacet
 facet normal -490.2343744 -2609.765624 25600
  outer loop
   vertex 716060 4739595 1608.01794434
   vertex 716060 4739755 1624.32897949
   vertex 715900 4739755 1621.26501465
  endloop
 endfacet
 facet normal 1856.484376 -4267.8320304 25600
  outer loop
   vertex 716060 4738955 1523.87304688
   vertex 716220 4738955 1512.27001953
   vertex 716060 4739115 1550.54699707
  endloop
 endfacet
 facet normal 1648.6328128 -4475.6835936 25600
  outer loop
   vertex 716220 4738955 1512.27001953
   vertex 716220 4739115 1540.24304199
   vertex 716060 4739115 1550.54699707
  endloop
 endfacet
 facet normal 1648.6328128 -7058.8867184 25600
  outer loop
   vertex 716060 4739115 1550.54699707
   vertex 716220 4739115 1540.24304199
   vertex 716060 4739275 1594.66503906
  endloop
 endfacet
 facet normal 1720.9570304 -1988.7890624 25600
  outer loop
   vertex 716060 4739275 1594.66503906
   vertex 716220 4739275 1583.90905762
   vertex 716060 4739435 1607.0949707
  endloop
 endfacet
 facet normal 1841.6015616 -1868.1445312 25600
  outer loop
   vertex 716220 4739275 1583.90905762
   vertex 716220 4739435 1595.58496094
   vertex 716060 4739435 1607.0949707
  endloop
 endfacet
 facet normal 1841.6015616 -147.6757824 25600
  outer loop
   vertex 716060 4739435 1607.0949707
   vertex 716220 4739435 1595.58496094
   vertex 716060 4739595 1608.01794434
  endloop
 endfacet
 facet normal 1268.6328128 -720.6445312 25600
  outer loop
   vertex 716220 4739435 1595.58496094
   vertex 716220 4739595 1600.08898926
   vertex 716060 4739595 1608.01794434
  endloop
 endfacet
 facet normal 1268.6328128 -2609.765624 25600
  outer loop
   vertex 716060 4739595 1608.01794434
   vertex 716220 4739595 1600.08898926
   vertex 716060 4739755 1624.32897949
  endloop
 endfacet
 facet normal 325.917968 -3552.4804688 25600
  outer loop
   vertex 716220 4739595 1600.08898926
   vertex 716220 4739755 1622.29199219
   vertex 716060 4739755 1624.32897949
  endloop
 endfacet
 facet normal 325.917968 -5644.1601568 25600
  outer loop
   vertex 716060 4739755 1624.32897949
   vertex 716220 4739755 1622.29199219
   vertex 716060 4739915 1659.60498047
  endloop
 endfacet
 facet normal -1672.3242176 -720.6445312 25600
  outer loop
   vertex 716220 4739435 1595.58496094
   vertex 716380 4739435 1606.0369873
   vertex 716220 4739595 1600.08898926
  endloop
 endfacet
 facet normal -3466.5624992 -2514.8828128 25600
  outer loop
   vertex 716380 4739435 1606.0369873
   vertex 716380 4739595 1621.75500488
   vertex 716220 4739595 1600.08898926
  endloop
 endfacet
 facet normal -3466.5624992 -3552.4804688 25600
  outer loop
   vertex 716220 4739595 1600.08898926
   vertex 716380 4739595 1621.75500488
   vertex 716220 4739755 1622.29199219
  endloop
 endfacet
 facet normal 4818.0664064 -609.765624 25600
  outer loop
   vertex 717980 4738635 1299.36999512
   vertex 717980 4738795 1303.18103027
   vertex 717820 4738795 1333.29394531
  endloop
 endfacet
 facet normal 4818.0664064 -2740.8007824 25600
  outer loop
   vertex 717820 4738795 1333.29394531
   vertex 717980 4738795 1303.18103027
   vertex 717820 4738955 1350.4239502
  endloop
 endfacet
 facet normal 7683.1835952 124.3164064 25600
  outer loop
   vertex 717980 4738795 1303.18103027
   vertex 717980 4738955 1302.40405273
   vertex 717820 4738955 1350.4239502
  endloop
 endfacet
 facet normal 4654.8828128 -609.765624 25600
  outer loop
   vertex 717980 4738635 1299.36999512
   vertex 718140 4738635 1270.27697754
   vertex 717980 4738795 1303.18103027
  endloop
 endfacet
 facet normal 4869.9218752 -394.7265616 25600
  outer loop
   vertex 718140 4738635 1270.27697754
   vertex 718140 4738795 1272.74401855
   vertex 717980 4738795 1303.18103027
  endloop
 endfacet
 facet normal 4869.9218752 124.3164064 25600
  outer loop
   vertex 717980 4738795 1303.18103027
   vertex 718140 4738795 1272.74401855
   vertex 717980 4738955 1302.40405273
  endloop
 endfacet
 facet normal 2771.0546864 -1974.5507824 25600
  outer loop
   vertex 718140 4738795 1272.74401855
   vertex 718140 4738955 1285.08496094
   vertex 717980 4738955 1302.40405273
  endloop
 endfacet
 facet normal 2771.0546864 -4749.277344 25600
  outer loop
   vertex 717980 4738955 1302.40405273
   vertex 718140 4738955 1285.08496094
   vertex 717980 4739115 1332.08703613
  endloop
 endfacet
 facet normal -777.1289056 -394.7265616 25600
  outer loop
   vertex 718140 4738635 1270.27697754
   vertex 718300 4738635 1275.1340332
   vertex 718140 4738795 1272.74401855
  endloop
 endfacet
 facet normal -3009.5898448 -2627.1875008 25600
  outer loop
   vertex 718300 4738635 1275.1340332
   vertex 718300 4738795 1291.55395508
   vertex 718140 4738795 1272.74401855
  endloop
 endfacet
 facet normal -3009.5898448 -1974.5507824 25600
  outer loop
   vertex 718140 4738795 1272.74401855
   vertex 718300 4738795 1291.55395508
   vertex 718140 4738955 1285.08496094
  endloop
 endfacet
 facet normal 1079.5117184 2114.5507808 25600
  outer loop
   vertex 718300 4738795 1291.55395508
   vertex 718300 4738955 1278.3380127
   vertex 718140 4738955 1285.08496094
  endloop
 endfacet
 facet normal 1079.5117184 -9151.3671872 25600
  outer loop
   vertex 718140 4738955 1285.08496094
   vertex 718300 4738955 1278.3380127
   vertex 718140 4739115 1342.28100586
  endloop
 endfacet
 facet normal 114.082032 10107.6757808 25600
  outer loop
   vertex 718460 4738795 1340.79797363
   vertex 718460 4738955 1277.625
   vertex 718300 4738955 1278.3380127
  endloop
 endfacet
 facet normal 114.082032 -5872.3242176 25600
  outer loop
   vertex 718300 4738955 1278.3380127
   vertex 718460 4738955 1277.625
   vertex 718300 4739115 1315.04003906
  endloop
 endfacet
 facet normal 6030.0781248 43.6718752 25600
  outer loop
   vertex 718460 4738955 1277.625
   vertex 718460 4739115 1277.35205078
   vertex 718300 4739115 1315.04003906
  endloop
 endfacet
 facet normal -4322.070312 43.6718752 25600
  outer loop
   vertex 718460 4738955 1277.625
   vertex 718620 4738955 1304.63793945
   vertex 718460 4739115 1277.35205078
  endloop
 endfacet
 facet normal -1475.9960944 2889.7460928 25600
  outer loop
   vertex 718620 4738955 1304.63793945
   vertex 718620 4739115 1286.57702637
   vertex 718460 4739115 1277.35205078
  endloop
 endfacet
 facet normal -1475.9960944 -7643.5156256 25600
  outer loop
   vertex 718460 4739115 1277.35205078
   vertex 718620 4739115 1286.57702637
   vertex 718460 4739275 1325.12402344
  endloop
 endfacet
 facet normal 6946.0742192 778.554688 25600
  outer loop
   vertex 718620 4739115 1286.57702637
   vertex 718620 4739275 1281.71105957
   vertex 718460 4739275 1325.12402344
  endloop
 endfacet
 facet normal -2738.554688 -340.957032 25600
  outer loop
   vertex 718620 4739275 1281.71105957
   vertex 718780 4739275 1298.82702637
   vertex 718620 4739435 1283.84204102
  endloop
 endfacet
 facet normal -66.07421872 -74.87304688 25600
  outer loop
   vertex 719260 4722315 849.556030273
   vertex 719260 4722475 850.023986816
   vertex 719100 4722475 849.611022949
  endloop
 endfacet
 facet normal 487.52929696 -193.4375 25600
  outer loop
   vertex 719260 4722475 850.023986816
   vertex 719260 4722635 851.232971191
   vertex 719100 4722635 854.280029297
  endloop
 endfacet
 facet normal 2353.28125008 60.95703136 25600
  outer loop
   vertex 719100 4723115 876.018981934
   vertex 719260 4723115 861.310974121
   vertex 719100 4723275 875.638000488
  endloop
 endfacet
 facet normal 1989.27734368 -303.04687504 25600
  outer loop
   vertex 719260 4723115 861.310974121
   vertex 719260 4723275 863.20501709
   vertex 719100 4723275 875.638000488
  endloop
 endfacet
 facet normal 1989.27734368 -410.72265632 25600
  outer loop
   vertex 719100 4723275 875.638000488
   vertex 719260 4723275 863.20501709
   vertex 719100 4723435 878.20501709
  endloop
 endfacet
 facet normal 2403.68164064 3.68164063999 25600
  outer loop
   vertex 719260 4723275 863.20501709
   vertex 719260 4723435 863.182006836
   vertex 719100 4723435 878.20501709
  endloop
 endfacet
 facet normal 2403.68164064 -4143.03710928 25600
  outer loop
   vertex 719100 4723435 878.20501709
   vertex 719260 4723435 863.182006836
   vertex 719100 4723595 904.098999023
  endloop
 endfacet
 facet normal 6374.23828112 -172.4804688 25600
  outer loop
   vertex 719260 4723435 863.182006836
   vertex 719260 4723595 864.260009766
   vertex 719100 4723595 904.098999023
  endloop
 endfacet
 facet normal 6374.23828112 -796.48437504 25600
  outer loop
   vertex 719100 4723595 904.098999023
   vertex 719260 4723595 864.260009766
   vertex 719100 4723755 909.077026367
  endloop
 endfacet
 facet normal 877.91992192 -578.07617184 25600
  outer loop
   vertex 719420 4721835 844.37701416
   vertex 719420 4721995 847.989990234
   vertex 719260 4721995 853.476989746
  endloop
 endfacet
 facet normal 823.20312496 52.95898432 25600
  outer loop
   vertex 719420 4721995 847.989990234
   vertex 719420 4722155 847.658996582
   vertex 719260 4722155 852.804016113
  endloop
 endfacet
 facet normal 823.20312496 519.6777344 25600
  outer loop
   vertex 719260 4722155 852.804016113
   vertex 719420 4722155 847.658996582
   vertex 719260 4722315 849.556030273
  endloop
 endfacet
 facet normal 147.5292968 -155.99609376 25600
  outer loop
   vertex 719420 4722155 847.658996582
   vertex 719420 4722315 848.633972168
   vertex 719260 4722315 849.556030273
  endloop
 endfacet
 facet normal 147.5292968 -74.87304688 25600
  outer loop
   vertex 719260 4722315 849.556030273
   vertex 719420 4722315 848.633972168
   vertex 719260 4722475 850.023986816
  endloop
 endfacet
 facet normal -160.32226576 -382.72460944 25600
  outer loop
   vertex 719420 4722315 848.633972168
   vertex 719420 4722475 851.026000977
   vertex 719260 4722475 850.023986816
  endloop
 endfacet
 facet normal -160.32226576 -193.4375 25600
  outer loop
   vertex 719260 4722475 850.023986816
   vertex 719420 4722475 851.026000977
   vertex 719260 4722635 851.232971191
  endloop
 endfacet
 facet normal -214.08203136 -247.1972656 25600
  outer loop
   vertex 719420 4722475 851.026000977
   vertex 719420 4722635 852.570983887
   vertex 719260 4722635 851.232971191
  endloop
 endfacet
 facet normal -214.08203136 30.23437488 25600
  outer loop
   vertex 719260 4722635 851.232971191
   vertex 719420 4722635 852.570983887
   vertex 719260 4722795 851.044006348
  endloop
 endfacet
 facet normal -422.236328 -177.91992176 25600
  outer loop
   vertex 719420 4722635 852.570983887
   vertex 719420 4722795 853.682983398
   vertex 719260 4722795 851.044006348
  endloop
 endfacet
 facet normal -388.48632816 -1607.5195312 25600
  outer loop
   vertex 719260 4722955 851.263977051
   vertex 719420 4722955 853.692016602
   vertex 719260 4723115 861.310974121
  endloop
 endfacet
 facet normal 377.59765616 -841.43554688 25600
  outer loop
   vertex 719420 4722955 853.692016602
   vertex 719420 4723115 858.95098877
   vertex 719260 4723115 861.310974121
  endloop
 endfacet
 facet normal 377.59765616 -303.04687504 25600
  outer loop
   vertex 719260 4723115 861.310974121
   vertex 719420 4723115 858.95098877
   vertex 719260 4723275 863.20501709
  endloop
 endfacet
 facet normal 381.60156256 -299.04296864 25600
  outer loop
   vertex 719420 4723115 858.95098877
   vertex 719420 4723275 860.820007324
   vertex 719260 4723275 863.20501709
  endloop
 endfacet
 facet normal 381.60156256 3.68164063999 25600
  outer loop
   vertex 719260 4723275 863.20501709
   vertex 719420 4723275 860.820007324
   vertex 719260 4723435 863.182006836
  endloop
 endfacet
 facet normal -156.96289056 -382.72460944 25600
  outer loop
   vertex 719420 4722315 848.633972168
   vertex 719580 4722315 849.614990234
   vertex 719420 4722475 851.026000977
  endloop
 endfacet
 facet normal 401.92382816 176.16210928 25600
  outer loop
   vertex 719580 4722315 849.614990234
   vertex 719580 4722475 848.513977051
   vertex 719420 4722475 851.026000977
  endloop
 endfacet
 facet normal 401.92382816 -247.1972656 25600
  outer loop
   vertex 719420 4722475 851.026000977
   vertex 719580 4722475 848.513977051
   vertex 719420 4722635 852.570983887
  endloop
 endfacet
 facet normal 81.43554688 -567.68554688 25600
  outer loop
   vertex 719580 4722475 848.513977051
   vertex 719580 4722635 852.062011719
   vertex 719420 4722635 852.570983887
  endloop
 endfacet
 facet normal 81.43554688 -177.91992176 25600
  outer loop
   vertex 719420 4722635 852.570983887
   vertex 719580 4722635 852.062011719
   vertex 719420 4722795 853.682983398
  endloop
 endfacet
 facet normal 149.12109376 -110.23437488 25600
  outer loop
   vertex 719580 4722635 852.062011719
   vertex 719580 4722795 852.750976562
   vertex 719420 4722795 853.682983398
  endloop
 endfacet
 facet normal 149.12109376 -1.44531263999 25600
  outer loop
   vertex 719420 4722795 853.682983398
   vertex 719580 4722795 852.750976562
   vertex 719420 4722955 853.692016602
  endloop
 endfacet
 facet normal 218.24218752 67.67578112 25600
  outer loop
   vertex 719580 4722795 852.750976562
   vertex 719580 4722955 852.32800293
   vertex 719420 4722955 853.692016602
  endloop
 endfacet
 facet normal 218.24218752 -841.43554688 25600
  outer loop
   vertex 719420 4722955 853.692016602
   vertex 719580 4722955 852.32800293
   vertex 719420 4723115 858.95098877
  endloop
 endfacet
 facet normal 375.19531264 -299.04296864 25600
  outer loop
   vertex 719420 4723115 858.95098877
   vertex 719580 4723115 856.606018066
   vertex 719420 4723275 860.820007324
  endloop
 endfacet
 facet normal 6047.6757808 202.5585936 25600
  outer loop
   vertex 719580 4734795 1216.60595703
   vertex 719740 4734795 1178.8079834
   vertex 719580 4734955 1215.33996582
  endloop
 endfacet
 facet normal 5551.679688 -293.4374992 25600
  outer loop
   vertex 719740 4734795 1178.8079834
   vertex 719740 4734955 1180.64196777
   vertex 719580 4734955 1215.33996582
  endloop
 endfacet
 facet normal 2515.5078128 -226.8945312 25600
  outer loop
   vertex 719740 4734955 1180.64196777
   vertex 719740 4735115 1182.06005859
   vertex 719580 4735115 1197.78198242
  endloop
 endfacet
 facet normal 3346.2304688 739.8242192 25600
  outer loop
   vertex 719900 4734635 1162.51794434
   vertex 719900 4734795 1157.89404297
   vertex 719740 4734795 1178.8079834
  endloop
 endfacet
 facet normal 3346.2304688 -293.4374992 25600
  outer loop
   vertex 719740 4734795 1178.8079834
   vertex 719900 4734795 1157.89404297
   vertex 719740 4734955 1180.64196777
  endloop
 endfacet
 facet normal 3206.2304688 -433.4374992 25600
  outer loop
   vertex 719900 4734795 1157.89404297
   vertex 719900 4734955 1160.60302734
   vertex 719740 4734955 1180.64196777
  endloop
 endfacet
 facet normal 3206.2304688 -226.8945312 25600
  outer loop
   vertex 719740 4734955 1180.64196777
   vertex 719900 4734955 1160.60302734
   vertex 719740 4735115 1182.06005859
  endloop
 endfacet
 facet normal 4425.7617184 992.6367184 25600
  outer loop
   vertex 719900 4734955 1160.60302734
   vertex 719900 4735115 1154.39904785
   vertex 719740 4735115 1182.06005859
  endloop
 endfacet
 facet normal 6088.1445312 6639.667968 25600
  outer loop
   vertex 719900 4734155 1252.88793945
   vertex 720060 4734155 1214.83703613
   vertex 719900 4734315 1211.39001465
  endloop
 endfacet
 facet normal 4196.9531248 4748.4765616 25600
  outer loop
   vertex 720060 4734155 1214.83703613
   vertex 720060 4734315 1185.15905762
   vertex 719900 4734315 1211.39001465
  endloop
 endfacet
 facet normal 4151.1914064 4791.5234368 25600
  outer loop
   vertex 719900 4734475 1192.46496582
   vertex 720060 4734475 1166.52001953
   vertex 719900 4734635 1162.51794434
  endloop
 endfacet
 facet normal 1306.38672 1946.7187504 25600
  outer loop
   vertex 720060 4734475 1166.52001953
   vertex 720060 4734635 1154.35302734
   vertex 719900 4734635 1162.51794434
  endloop
 endfacet
 facet normal 1306.38672 739.8242192 25600
  outer loop
   vertex 719900 4734635 1162.51794434
   vertex 720060 4734635 1154.35302734
   vertex 719900 4734795 1157.89404297
  endloop
 endfacet
 facet normal -1359.1992192 -1925.76172 25600
  outer loop
   vertex 720060 4734635 1154.35302734
   vertex 720060 4734795 1166.38903809
   vertex 719900 4734795 1157.89404297
  endloop
 endfacet
 facet normal -1359.1992192 -433.4374992 25600
  outer loop
   vertex 719900 4734795 1157.89404297
   vertex 720060 4734795 1166.38903809
   vertex 719900 4734955 1160.60302734
  endloop
 endfacet
 facet normal -226.2304688 699.5312512 25600
  outer loop
   vertex 720060 4734795 1166.38903809
   vertex 720060 4734955 1162.01696777
   vertex 719900 4734955 1160.60302734
  endloop
 endfacet
 facet normal -226.2304688 992.6367184 25600
  outer loop
   vertex 719900 4734955 1160.60302734
   vertex 720060 4734955 1162.01696777
   vertex 719900 4735115 1154.39904785
  endloop
 endfacet
 facet normal 1594.4140624 4748.4765616 25600
  outer loop
   vertex 720060 4734155 1214.83703613
   vertex 720220 4734155 1204.87194824
   vertex 720060 4734315 1185.15905762
  endloop
 endfacet
 facet normal 4214.2578128 2982.2460944 25600
  outer loop
   vertex 720060 4734315 1185.15905762
   vertex 720220 4734315 1158.81994629
   vertex 720060 4734475 1166.52001953
  endloop
 endfacet
 facet normal 6340.1562496 5108.1445312 25600
  outer loop
   vertex 720220 4734315 1158.81994629
   vertex 720220 4734475 1126.89404297
   vertex 720060 4734475 1166.52001953
  endloop
 endfacet
 facet normal 6340.1562496 1946.7187504 25600
  outer loop
   vertex 720060 4734475 1166.52001953
   vertex 720220 4734475 1126.89404297
   vertex 720060 4734635 1154.35302734
  endloop
 endfacet
 facet normal 9130.722656 4737.2851568 25600
  outer loop
   vertex 720220 4734475 1126.89404297
   vertex 720220 4734635 1097.28601074
   vertex 720060 4734635 1154.35302734
  endloop
 endfacet
 facet normal 9130.722656 -1925.76172 25600
  outer loop
   vertex 720060 4734635 1154.35302734
   vertex 720220 4734635 1097.28601074
   vertex 720060 4734795 1166.38903809
  endloop
 endfacet
 facet normal -5569.4531264 -7150.8789072 25600
  outer loop
   vertex 721500 4733355 1138.11096191
   vertex 721660 4733355 1172.92004395
   vertex 721500 4733515 1182.80395508
  endloop
 endfacet
 facet normal 2963.1835936 1381.7578128 25600
  outer loop
   vertex 721660 4733355 1172.92004395
   vertex 721660 4733515 1164.28405762
   vertex 721500 4733515 1182.80395508
  endloop
 endfacet
 facet normal 2963.1835936 -6936.3281248 25600
  outer loop
   vertex 721500 4733515 1182.80395508
   vertex 721660 4733515 1164.28405762
   vertex 721500 4733675 1226.15600586
  endloop
 endfacet
 facet normal 4787.6757808 -5111.8359376 25600
  outer loop
   vertex 721660 4733515 1164.28405762
   vertex 721660 4733675 1196.23303223
   vertex 721500 4733675 1226.15600586
  endloop
 endfacet
 facet normal -921.11328 -5111.8359376 25600
  outer loop
   vertex 721660 4733515 1164.28405762
   vertex 721820 4733515 1170.04101562
   vertex 721660 4733675 1196.23303223
  endloop
 endfacet
 facet normal 2839.1992192 -1351.5234384 25600
  outer loop
   vertex 721820 4733515 1170.04101562
   vertex 721820 4733675 1178.48803711
   vertex 721660 4733675 1196.23303223
  endloop
 endfacet
 facet normal -4355.1953136 -1351.5234384 25600
  outer loop
   vertex 721820 4733515 1170.04101562
   vertex 721980 4733515 1197.26098633
   vertex 721820 4733675 1178.48803711
  endloop
 endfacet
 facet normal -309.7460944 2693.9257808 25600
  outer loop
   vertex 721980 4733515 1197.26098633
   vertex 721980 4733675 1180.4239502
   vertex 721820 4733675 1178.48803711
  endloop
 endfacet
 facet normal -309.7460944 -7464.7851568 25600
  outer loop
   vertex 721820 4733675 1178.48803711
   vertex 721980 4733675 1180.4239502
   vertex 721820 4733835 1225.14294434
  endloop
 endfacet
 facet normal 2021.7578128 -5133.2812496 25600
  outer loop
   vertex 721980 4733675 1180.4239502
   vertex 721980 4733835 1212.50695801
   vertex 721820 4733835 1225.14294434
  endloop
 endfacet
 facet normal 7496.8164064 -9024.7851568 25600
  outer loop
   vertex 722140 4733195 1121.1340332
   vertex 722140 4733355 1177.53894043
   vertex 721980 4733355 1224.39404297
  endloop
 endfacet
 facet normal 7496.8164064 4341.2890624 25600
  outer loop
   vertex 721980 4733355 1224.39404297
   vertex 722140 4733355 1177.53894043
   vertex 721980 4733515 1197.26098633
  endloop
 endfacet
 facet normal 651.3671872 -2504.1601568 25600
  outer loop
   vertex 722140 4733355 1177.53894043
   vertex 722140 4733515 1193.18994141
   vertex 721980 4733515 1197.26098633
  endloop
 endfacet
 facet normal 651.3671872 2693.9257808 25600
  outer loop
   vertex 721980 4733515 1197.26098633
   vertex 722140 4733515 1193.18994141
   vertex 721980 4733675 1180.4239502
  endloop
 endfacet
 facet normal -516.8164048 1525.7421888 25600
  outer loop
   vertex 722140 4733515 1193.18994141
   vertex 722140 4733675 1183.65405273
   vertex 721980 4733675 1180.4239502
  endloop
 endfacet
 facet normal -516.8164048 -5133.2812496 25600
  outer loop
   vertex 721980 4733675 1180.4239502
   vertex 722140 4733675 1183.65405273
   vertex 721980 4733835 1212.50695801
  endloop
 endfacet
 facet normal -5618.0859376 -10234.5507824 25600
  outer loop
   vertex 722140 4733675 1183.65405273
   vertex 722140 4733835 1247.61999512
   vertex 721980 4733835 1212.50695801
  endloop
 endfacet
 facet normal -6779.51172 -9024.7851568 25600
  outer loop
   vertex 722140 4733195 1121.1340332
   vertex 722300 4733195 1163.50598145
   vertex 722140 4733355 1177.53894043
  endloop
 endfacet
 facet normal 1558.7109376 -686.5624992 25600
  outer loop
   vertex 722300 4733195 1163.50598145
   vertex 722300 4733355 1167.79699707
   vertex 722140 4733355 1177.53894043
  endloop
 endfacet
 facet normal 1558.7109376 -2504.1601568 25600
  outer loop
   vertex 722140 4733355 1177.53894043
   vertex 722300 4733355 1167.79699707
   vertex 722140 4733515 1193.18994141
  endloop
 endfacet
 facet normal 1450.8789072 -2611.9921872 25600
  outer loop
   vertex 722300 4733355 1167.79699707
   vertex 722300 4733515 1184.12194824
   vertex 722140 4733515 1193.18994141
  endloop
 endfacet
 facet normal 1450.8789072 1525.7421888 25600
  outer loop
   vertex 722140 4733515 1193.18994141
   vertex 722300 4733515 1184.12194824
   vertex 722140 4733675 1183.65405273
  endloop
 endfacet
 facet normal 1244.3359376 1319.1992192 25600
  outer loop
   vertex 722300 4733515 1184.12194824
   vertex 722300 4733675 1175.87695312
   vertex 722140 4733675 1183.65405273
  endloop
 endfacet
 facet normal 1244.3359376 -10234.5507824 25600
  outer loop
   vertex 722140 4733675 1183.65405273
   vertex 722300 4733675 1175.87695312
   vertex 722140 4733835 1247.61999512
  endloop
 endfacet
 facet normal 1611.3671872 -9867.5195328 25600
  outer loop
   vertex 722300 4733675 1175.87695312
   vertex 722300 4733835 1237.5489502
   vertex 722140 4733835 1247.61999512
  endloop
 endfacet
endsolid