solid
 facet normal -5274.7070304 -3280.3124992 25600
  outer loop
   vertex 710300 4727435 1466.17102051
   vertex 710300 4727595 1486.67297363
   vertex 710140 4727595 1453.70605469
  endloop
 endfacet
 facet normal -597.929688 -3314.4140624 25600
  outer loop
   vertex 710460 4726795 1395.41296387
   vertex 710460 4726955 1416.12805176
   vertex 710300 4726955 1412.39099121
  endloop
 endfacet
 facet normal -597.929688 1419.042968 25600
  outer loop
   vertex 710300 4726955 1412.39099121
   vertex 710460 4726955 1416.12805176
   vertex 710300 4727115 1403.52197266
  endloop
 endfacet
 facet normal -4707.0507808 -2690.0781248 25600
  outer loop
   vertex 710460 4726955 1416.12805176
   vertex 710460 4727115 1432.94104004
   vertex 710300 4727115 1403.52197266
  endloop
 endfacet
 facet normal -5813.5937504 -4493.9062496 25600
  outer loop
   vertex 710460 4727115 1432.94104004
   vertex 710460 4727275 1461.0279541
   vertex 710300 4727275 1424.69299316
  endloop
 endfacet
 facet normal -5813.5937504 -6636.484376 25600
  outer loop
   vertex 710300 4727275 1424.69299316
   vertex 710460 4727275 1461.0279541
   vertex 710300 4727435 1466.17102051
  endloop
 endfacet
 facet normal 3026.5625008 2660.957032 25600
  outer loop
   vertex 710460 4725675 1304.99597168
   vertex 710620 4725675 1286.07995605
   vertex 710460 4725835 1288.36499023
  endloop
 endfacet
 facet normal -4459.5312512 -4825.13672 25600
  outer loop
   vertex 710620 4725675 1286.07995605
   vertex 710620 4725835 1316.23706055
   vertex 710460 4725835 1288.36499023
  endloop
 endfacet
 facet normal -4459.5312512 -857.1289072 25600
  outer loop
   vertex 710460 4725835 1288.36499023
   vertex 710620 4725835 1316.23706055
   vertex 710460 4725995 1293.7220459
  endloop
 endfacet
 facet normal -7489.7460928 -3887.3437488 25600
  outer loop
   vertex 710620 4725835 1316.23706055
   vertex 710620 4725995 1340.53295898
   vertex 710460 4725995 1293.7220459
  endloop
 endfacet
 facet normal -7489.7460928 -3172.792968 25600
  outer loop
   vertex 710460 4725995 1293.7220459
   vertex 710620 4725995 1340.53295898
   vertex 710460 4726155 1313.55200195
  endloop
 endfacet
 facet normal -8057.9101568 -3740.957032 25600
  outer loop
   vertex 710620 4725995 1340.53295898
   vertex 710620 4726155 1363.91394043
   vertex 710460 4726155 1313.55200195
  endloop
 endfacet
 facet normal -8057.9101568 -2417.1289072 25600
  outer loop
   vertex 710460 4726155 1313.55200195
   vertex 710620 4726155 1363.91394043
   vertex 710460 4726315 1328.65905762
  endloop
 endfacet
 facet normal -5122.7148432 518.0664064 25600
  outer loop
   vertex 710620 4726155 1363.91394043
   vertex 710620 4726315 1360.67602539
   vertex 710460 4726315 1328.65905762
  endloop
 endfacet
 facet normal -5122.7148432 -4124.7851552 25600
  outer loop
   vertex 710460 4726315 1328.65905762
   vertex 710620 4726315 1360.67602539
   vertex 710460 4726475 1354.43896484
  endloop
 endfacet
 facet normal -6287.207032 -5289.277344 25600
  outer loop
   vertex 710620 4726315 1360.67602539
   vertex 710620 4726475 1393.73400879
   vertex 710460 4726475 1354.43896484
  endloop
 endfacet
 facet normal -6287.207032 -2870.2539072 25600
  outer loop
   vertex 710460 4726475 1354.43896484
   vertex 710620 4726475 1393.73400879
   vertex 710460 4726635 1372.37805176
  endloop
 endfacet
 facet normal -6112.9492192 -2695.9960944 25600
  outer loop
   vertex 710620 4726475 1393.73400879
   vertex 710620 4726635 1410.58398438
   vertex 710460 4726635 1372.37805176
  endloop
 endfacet
 facet normal -6112.9492192 -3685.5859376 25600
  outer loop
   vertex 710460 4726635 1372.37805176
   vertex 710620 4726635 1410.58398438
   vertex 710460 4726795 1395.41296387
  endloop
 endfacet
 facet normal -5518.7304688 -3091.3671872 25600
  outer loop
   vertex 710620 4726635 1410.58398438
   vertex 710620 4726795 1429.9050293
   vertex 710460 4726795 1395.41296387
  endloop
 endfacet
 facet normal -5518.7304688 -3314.4140624 25600
  outer loop
   vertex 710460 4726795 1395.41296387
   vertex 710620 4726795 1429.9050293
   vertex 710460 4726955 1416.12805176
  endloop
 endfacet
 facet normal -5973.4374992 -3769.1210928 25600
  outer loop
   vertex 710620 4726795 1429.9050293
   vertex 710620 4726955 1453.46203613
   vertex 710460 4726955 1416.12805176
  endloop
 endfacet
 facet normal -5973.4374992 -2690.0781248 25600
  outer loop
   vertex 710460 4726955 1416.12805176
   vertex 710620 4726955 1453.46203613
   vertex 710460 4727115 1432.94104004
  endloop
 endfacet
 facet normal -12426.542968 -3887.3437488 25600
  outer loop
   vertex 710620 4725835 1316.23706055
   vertex 710780 4725835 1393.9029541
   vertex 710620 4725995 1340.53295898
  endloop
 endfacet
 facet normal 8704.6484384 3930.4101568 25600
  outer loop
   vertex 718460 4732715 1468.81201172
   vertex 718620 4732715 1414.40795898
   vertex 718460 4732875 1444.24694824
  endloop
 endfacet
 facet normal 2714.7070304 -2059.5312512 25600
  outer loop
   vertex 718620 4732715 1414.40795898
   vertex 718620 4732875 1427.2800293
   vertex 718460 4732875 1444.24694824
  endloop
 endfacet
 facet normal 1693.6132816 -4752.9492176 25600
  outer loop
   vertex 718620 4732875 1427.2800293
   vertex 718620 4733035 1456.98596191
   vertex 718460 4733035 1467.57104492
  endloop
 endfacet
 facet normal 1693.6132816 -2420.957032 25600
  outer loop
   vertex 718460 4733035 1467.57104492
   vertex 718620 4733035 1456.98596191
   vertex 718460 4733195 1482.70202637
  endloop
 endfacet
 facet normal -2549.4335936 -6664.0039072 25600
  outer loop
   vertex 718620 4733035 1456.98596191
   vertex 718620 4733195 1498.63598633
   vertex 718460 4733195 1482.70202637
  endloop
 endfacet
 facet normal 3311.3671872 599.3554688 25600
  outer loop
   vertex 718620 4733195 1498.63598633
   vertex 718620 4733355 1494.89001465
   vertex 718460 4733355 1515.58605957
  endloop
 endfacet
 facet normal 3311.3671872 -3906.875 25600
  outer loop
   vertex 718460 4733355 1515.58605957
   vertex 718620 4733355 1494.89001465
   vertex 718460 4733515 1540.00402832
  endloop
 endfacet
 facet normal 5538.3984368 -1679.8437504 25600
  outer loop
   vertex 718620 4733355 1494.89001465
   vertex 718620 4733515 1505.38903809
   vertex 718460 4733515 1540.00402832
  endloop
 endfacet
 facet normal 1570.0781248 -3797.1289072 25600
  outer loop
   vertex 718780 4732715 1393.73498535
   vertex 718780 4732875 1417.46704102
   vertex 718620 4732875 1427.2800293
  endloop
 endfacet
 facet normal 1570.0781248 -4752.9492176 25600
  outer loop
   vertex 718620 4732875 1427.2800293
   vertex 718780 4732875 1417.46704102
   vertex 718620 4733035 1456.98596191
  endloop
 endfacet
 facet normal 1118.7109376 -5204.3164048 25600
  outer loop
   vertex 718780 4732875 1417.46704102
   vertex 718780 4733035 1449.99401855
   vertex 718620 4733035 1456.98596191
  endloop
 endfacet
 facet normal 6709.7656256 -1072.9492192 25600
  outer loop
   vertex 718780 4733035 1449.99401855
   vertex 718780 4733195 1456.69995117
   vertex 718620 4733195 1498.63598633
  endloop
 endfacet
 facet normal 6709.7656256 599.3554688 25600
  outer loop
   vertex 718620 4733195 1498.63598633
   vertex 718780 4733195 1456.69995117
   vertex 718620 4733355 1494.89001465
  endloop
 endfacet
 facet normal 5880.6445312 -229.7656256 25600
  outer loop
   vertex 718780 4733195 1456.69995117
   vertex 718780 4733355 1458.13598633
   vertex 718620 4733355 1494.89001465
  endloop
 endfacet
 facet normal 5880.6445312 -1679.8437504 25600
  outer loop
   vertex 718620 4733355 1494.89001465
   vertex 718780 4733355 1458.13598633
   vertex 718620 4733515 1505.38903809
  endloop
 endfacet
 facet normal 6643.8476576 -916.640624 25600
  outer loop
   vertex 718780 4733355 1458.13598633
   vertex 718780 4733515 1463.86499023
   vertex 718620 4733515 1505.38903809
  endloop
 endfacet
 facet normal 5786.4062496 -586.5625008 25600
  outer loop
   vertex 718780 4733835 1482.77099609
   vertex 718780 4733995 1486.43701172
   vertex 718620 4733995 1522.60205078
  endloop
 endfacet
 facet normal 2325.7617184 3750.4101568 25600
  outer loop
   vertex 718780 4733995 1486.43701172
   vertex 718780 4734155 1462.99694824
   vertex 718620 4734155 1477.53295898
  endloop
 endfacet
 facet normal 3330.5664064 -4610.2343744 25600
  outer loop
   vertex 718940 4732555 1344.10498047
   vertex 718940 4732715 1372.91894531
   vertex 718780 4732715 1393.73498535
  endloop
 endfacet
 facet normal 3330.5664064 -3797.1289072 25600
  outer loop
   vertex 718780 4732715 1393.73498535
   vertex 718940 4732715 1372.91894531
   vertex 718780 4732875 1417.46704102
  endloop
 endfacet
 facet normal 3160.6445312 -5204.3164048 25600
  outer loop
   vertex 718780 4732875 1417.46704102
   vertex 718940 4732875 1397.7130127
   vertex 718780 4733035 1449.99401855
  endloop
 endfacet
 facet normal 3426.7187488 -4938.2421872 25600
  outer loop
   vertex 718940 4732875 1397.7130127
   vertex 718940 4733035 1428.57702637
   vertex 718780 4733035 1449.99401855
  endloop
 endfacet
 facet normal 3426.7187488 -1072.9492192 25600
  outer loop
   vertex 718780 4733035 1449.99401855
   vertex 718940 4733035 1428.57702637
   vertex 718780 4733195 1456.69995117
  endloop
 endfacet
 facet normal 2931.347656 -1568.320312 25600
  outer loop
   vertex 718940 4733035 1428.57702637
   vertex 718940 4733195 1438.37902832
   vertex 718780 4733195 1456.69995117
  endloop
 endfacet
 facet normal 2931.347656 -229.7656256 25600
  outer loop
   vertex 718780 4733195 1456.69995117
   vertex 718940 4733195 1438.37902832
   vertex 718780 4733355 1458.13598633
  endloop
 endfacet
 facet normal 6411.5234384 3250.4101568 25600
  outer loop
   vertex 718940 4733195 1438.37902832
   vertex 718940 4733355 1418.06396484
   vertex 718780 4733355 1458.13598633
  endloop
 endfacet
 facet normal 6411.5234384 -916.640624 25600
  outer loop
   vertex 718780 4733355 1458.13598633
   vertex 718940 4733355 1418.06396484
   vertex 718780 4733515 1463.86499023
  endloop
 endfacet
 facet normal 3611.8359376 -3716.3281248 25600
  outer loop
   vertex 718940 4733355 1418.06396484
   vertex 718940 4733515 1441.29101562
   vertex 718780 4733515 1463.86499023
  endloop
 endfacet
 facet normal 3611.8359376 -1358.88672 25600
  outer loop
   vertex 718780 4733515 1463.86499023
   vertex 718940 4733515 1441.29101562
   vertex 718780 4733675 1472.35803223
  endloop
 endfacet
 facet normal 5717.1289072 -1666.0742176 25600
  outer loop
   vertex 718780 4733675 1472.35803223
   vertex 718940 4733675 1436.62597656
   vertex 718780 4733835 1482.77099609
  endloop
 endfacet
 facet normal 4748.0078112 -2635.1953136 25600
  outer loop
   vertex 718940 4733675 1436.62597656
   vertex 718940 4733835 1453.09594727
   vertex 718780 4733835 1482.77099609
  endloop
 endfacet
 facet normal 4748.0078112 -586.5625008 25600
  outer loop
   vertex 718780 4733835 1482.77099609
   vertex 718940 4733835 1453.09594727
   vertex 718780 4733995 1486.43701172
  endloop
 endfacet
 facet normal 4389.9218752 -944.6484368 25600
  outer loop
   vertex 718940 4733835 1453.09594727
   vertex 718940 4733995 1459.0
   vertex 718780 4733995 1486.43701172
  endloop
 endfacet
 facet normal 4389.9218752 3750.4101568 25600
  outer loop
   vertex 718780 4733995 1486.43701172
   vertex 718940 4733995 1459.0
   vertex 718780 4734155 1462.99694824
  endloop
 endfacet
 facet normal 5164.9609376 4525.4492192 25600
  outer loop
   vertex 718940 4733995 1459.0
   vertex 718940 4734155 1430.71594238
   vertex 718780 4734155 1462.99694824
  endloop
 endfacet
 facet normal 3295.6835936 -4610.2343744 25600
  outer loop
   vertex 718940 4732555 1344.10498047
   vertex 719100 4732555 1323.50695801
   vertex 718940 4732715 1372.91894531
  endloop
 endfacet
 facet normal -4235.9960944 -10529.277344 25600
  outer loop
   vertex 719100 4733035 1399.04602051
   vertex 719100 4733195 1464.85400391
   vertex 718940 4733195 1438.37902832
  endloop
 endfacet
 facet normal -4235.9960944 3250.4101568 25600
  outer loop
   vertex 718940 4733195 1438.37902832
   vertex 719100 4733195 1464.85400391
   vertex 718940 4733355 1418.06396484
  endloop
 endfacet
 facet normal -2304.804688 5181.6015632 25600
  outer loop
   vertex 719100 4733195 1464.85400391
   vertex 719100 4733355 1432.46899414
   vertex 718940 4733355 1418.06396484
  endloop
 endfacet
 facet normal -2304.804688 -3716.3281248 25600
  outer loop
   vertex 718940 4733355 1418.06396484
   vertex 719100 4733355 1432.46899414
   vertex 718940 4733515 1441.29101562
  endloop
 endfacet
 facet normal 5059.1992176 3647.6757808 25600
  outer loop
   vertex 719100 4733355 1432.46899414
   vertex 719100 4733515 1409.67102051
   vertex 718940 4733515 1441.29101562
  endloop
 endfacet
 facet normal 5429.765624 1116.972656 25600
  outer loop
   vertex 719100 4733515 1409.67102051
   vertex 719100 4733675 1402.68994141
   vertex 718940 4733675 1436.62597656
  endloop
 endfacet
 facet normal 5429.765624 -2635.1953136 25600
  outer loop
   vertex 718940 4733675 1436.62597656
   vertex 719100 4733675 1402.68994141
   vertex 718940 4733835 1453.09594727
  endloop
 endfacet
 facet normal 6865.1171888 -1199.8437488 25600
  outer loop
   vertex 719100 4733675 1402.68994141
   vertex 719100 4733835 1410.18896484
   vertex 718940 4733835 1453.09594727
  endloop
 endfacet
 facet normal 6865.1171888 -944.6484368 25600
  outer loop
   vertex 718940 4733835 1453.09594727
   vertex 719100 4733835 1410.18896484
   vertex 718940 4733995 1459.0
  endloop
 endfacet
 facet normal 6606.4062496 -1203.359376 25600
  outer loop
   vertex 719100 4733835 1410.18896484
   vertex 719100 4733995 1417.70996094
   vertex 718940 4733995 1459.0
  endloop
 endfacet
 facet normal 6606.4062496 4525.4492192 25600
  outer loop
   vertex 718940 4733995 1459.0
   vertex 719100 4733995 1417.70996094
   vertex 718940 4734155 1430.71594238
  endloop
 endfacet
 facet normal 4022.3828128 1941.4257824 25600
  outer loop
   vertex 719100 4733995 1417.70996094
   vertex 719100 4734155 1405.5760498
   vertex 718940 4734155 1430.71594238
  endloop
 endfacet
 facet normal 9499.6875008 5181.6015632 25600
  outer loop
   vertex 719100 4733195 1464.85400391
   vertex 719260 4733195 1405.48095703
   vertex 719100 4733355 1432.46899414
  endloop
 endfacet
 facet normal -230.722656 -4548.8085936 25600
  outer loop
   vertex 719260 4733195 1405.48095703
   vertex 719260 4733355 1433.91101074
   vertex 719100 4733355 1432.46899414
  endloop
 endfacet
 facet normal -230.722656 3647.6757808 25600
  outer loop
   vertex 719100 4733355 1432.46899414
   vertex 719260 4733355 1433.91101074
   vertex 719100 4733515 1409.67102051
  endloop
 endfacet
 facet normal -3587.5195312 290.8789056 25600
  outer loop
   vertex 719260 4733355 1433.91101074
   vertex 719260 4733515 1432.09301758
   vertex 719100 4733515 1409.67102051
  endloop
 endfacet
 facet normal -3587.5195312 1116.972656 25600
  outer loop
   vertex 719100 4733515 1409.67102051
   vertex 719260 4733515 1432.09301758
   vertex 719100 4733675 1402.68994141
  endloop
 endfacet
 facet normal -450.8984368 4253.5937504 25600
  outer loop
   vertex 719260 4733515 1432.09301758
   vertex 719260 4733675 1405.50805664
   vertex 719100 4733675 1402.68994141
  endloop
 endfacet
 facet normal -450.8984368 -1199.8437488 25600
  outer loop
   vertex 719100 4733675 1402.68994141
   vertex 719260 4733675 1405.50805664
   vertex 719100 4733835 1410.18896484
  endloop
 endfacet
 facet normal 6671.347656 5922.402344 25600
  outer loop
   vertex 719260 4733675 1405.50805664
   vertex 719260 4733835 1368.49304199
   vertex 719100 4733835 1410.18896484
  endloop
 endfacet
 facet normal 3390.234376 1941.4257824 25600
  outer loop
   vertex 719100 4733995 1417.70996094
   vertex 719260 4733995 1396.52099609
   vertex 719100 4734155 1405.5760498
  endloop
 endfacet
 facet normal 4078.3984368 2629.5898432 25600
  outer loop
   vertex 719260 4733995 1396.52099609
   vertex 719260 4734155 1380.08605957
   vertex 719100 4734155 1405.5760498
  endloop
 endfacet
 facet normal 4078.3984368 8220.1757808 25600
  outer loop
   vertex 719100 4734155 1405.5760498
   vertex 719260 4734155 1380.08605957
   vertex 719100 4734315 1354.19995117
  endloop
 endfacet
 facet normal 6962.2460928 290.8789056 25600
  outer loop
   vertex 719260 4733355 1433.91101074
   vertex 719420 4733355 1390.39697266
   vertex 719260 4733515 1432.09301758
  endloop
 endfacet
 facet normal 1027.0507808 7613.4374992 25600
  outer loop
   vertex 719420 4733675 1409.65795898
   vertex 719420 4733835 1362.07397461
   vertex 719260 4733835 1368.49304199
  endloop
 endfacet
 facet normal 5970.8984368 5634.7265616 25600
  outer loop
   vertex 719420 4733995 1377.98498535
   vertex 719420 4734155 1342.76794434
   vertex 719260 4734155 1380.08605957
  endloop
 endfacet
 facet normal 5970.8984368 3660.1757808 25600
  outer loop
   vertex 719260 4734155 1380.08605957
   vertex 719420 4734155 1342.76794434
   vertex 719260 4734315 1357.20996094
  endloop
 endfacet
 facet normal 5370.722656 3060.0 25600
  outer loop
   vertex 719420 4734155 1342.76794434
   vertex 719420 4734315 1323.64294434
   vertex 719260 4734315 1357.20996094
  endloop
 endfacet
 facet normal 5498.8671888 3060.0 25600
  outer loop
   vertex 719420 4734155 1342.76794434
   vertex 719580 4734155 1308.40002441
   vertex 719420 4734315 1323.64294434
  endloop
 endfacet
endsolid